<?xml version="1.0" encoding="utf-8"?>
<svg xmlns="http://www.w3.org/2000/svg" xmlns:xlink="http://www.w3.org/1999/xlink" version= "1.1" width="50px" height="50px" viewBox="27 1082 50 50">
<rect x="27" y="1082" width="50" height="50" fill="rgb(44,44,44)"/>
<g id="layer1">
<g style="fill:url(#grad0); fill-opacity:1.0; stroke-linejoin: miter">
<path d="M60.950077,1172.1938L60.95008,1172.194L60.950073,1172.1937L60.950077,1172.1938L60.95007,1172.1937L60.950085,1172.194L60.950077,1172.1938L60.95008,1172.194L60.950073,1172.1937L60.950077,1172.1938L60.95007,1172.1937L60.950085,1172.194L60.950077,1172.1938L60.95008,1172.194L60.950073,1172.1937L60.950077,1172.1938L60.95007,1172.1937L60.950085,1172.194L60.950077,1172.1938L60.95008,1172.194L60.950073,1172.1937L60.950077,1172.1938L60.95007,1172.1937L60.950085,1172.194L60.950077,1172.1938"/>
</g>
<g style="fill:rgb(255,255,255); fill-opacity:1.0; stroke-linejoin: miter">
<path d="M60.950077,1172.1938L60.95008,1172.194L60.950073,1172.1937L60.950077,1172.1938L60.95007,1172.1937L60.950085,1172.194L60.950077,1172.1938L60.95008,1172.194L60.950073,1172.1937L60.950077,1172.1938L60.95007,1172.1937L60.950085,1172.194L60.950077,1172.1938L60.95008,1172.194L60.950073,1172.1937L60.950077,1172.1938L60.95007,1172.1937L60.950085,1172.194L60.950077,1172.1938L60.95008,1172.194L60.950073,1172.1937L60.950077,1172.1938L60.95007,1172.1937L60.950085,1172.194L60.950077,1172.1938"/>
</g>
<g style="fill:rgb(255,254,254); fill-opacity:1.0; stroke-linejoin: miter">
</g>
<g style="fill:rgb(253,139,5); fill-opacity:1.0; stroke-linejoin: miter">
</g>
<g style="fill:rgb(253,139,5); fill-opacity:1.0; stroke-linejoin: miter">
</g>
<g style="fill:rgb(149,150,152); fill-opacity:1.0; stroke-linejoin: miter">
<path d="M724.3277,-148.37798L731.302,-150.47023L738.27625,-152.56248L724.3277,-148.37798"/>
</g>
<g style="fill:rgb(255,255,255); fill-opacity:1.0; stroke-linejoin: miter">
<path d="M14.912544,1073.287L14.912544,1073.287L14.912544,1073.287L14.912544,1073.287L14.912544,1073.287L14.912544,1073.287L14.912544,1073.287L14.912544,1073.287L14.912544,1073.287L14.912544,1073.287 M14.912544,1077.0326L14.912544,1077.0326L14.912544,1077.0326L14.912544,1077.0326L14.912544,1077.0326L14.912544,1077.0326L14.912544,1077.0326L14.912544,1077.0326L14.912544,1077.0326 Z"/>
</g>
<g style="fill:rgb(0,0,0); fill-opacity:1.0; stroke-linejoin: miter">
<path d="M405.93713,1429.671Q405.6996,1429.8131,495.4665,1434.4509L524.27246,1434.8279Q543.05023,1436.7079,558.78564,1436.8716Q566.6126,1439.2139,578.65564,1439.54L603.7926,1439.688Q606.5437,1439.8422,608.3737,1440.1204Q620.4315,1441.8433,627.3558,1444.233L690.07043,1469.1895 Z"/>
</g>
<g style="fill:rgb(255,255,255); fill-opacity:1.0; stroke-linejoin: miter">
</g>
<g style="fill:rgb(255,255,255); fill-opacity:1.0; stroke-linejoin: miter">
</g>
<g>
<g>
<g style="fill:url(#grad1); fill-opacity:1.0; stroke-linejoin: miter">
<path d="M61.921486,1109.7953C62.235657,1115.0934,58.197865,1119.643,52.902813,1119.9568C47.607765,1120.2709,43.06058,1116.2306,42.74639,1110.9325C42.432186,1105.6342,46.46999,1101.0847,51.765057,1100.7706C57.06012,1100.4567,61.607304,1104.4971,61.921486,1109.7953 Z"/>
</g>
<g>
<g style="fill:url(#grad1); fill-opacity:1.0; stroke-linejoin: miter">
<path d="M32.786995,1108.3214L32.786995,1108.3214C40.307526,1114.0267,46.941254,1118.9347,52.874496,1118.9344L52.874496,1118.9344C52.928417,1118.9344,52.993248,1118.934,53.047043,1118.933L53.047047,1118.933C58.942482,1118.8352,64.68005,1113.7748,71.29784,1107.7571L71.44942,1111.009C64.577255,1105.8412,58.531166,1101.409,52.59961,1101.4089L52.59961,1101.4089C52.541195,1101.4089,52.46472,1101.4095,52.40626,1101.4105L52.406754,1101.4105C46.38214,1101.5106,39.997765,1106.2295,32.785217,1111.6893L32.786995,1108.3214 M30.232943,1111.688C29.70606,1111.2883,29.39673,1110.6649,29.397078,1110.0037C29.397427,1109.3423,29.707422,1108.7192,30.234722,1108.3202L30.234722,1108.3202C37.01575,1103.1871,44.62459,1097.3134,52.33659,1097.1854L52.33708,1097.1854C52.426716,1097.184,52.50999,1097.1832,52.599617,1097.1832L52.599617,1097.1832C60.24712,1097.1832,67.530975,1102.7753,73.98921,1107.6316C74.492386,1108.0101,74.8006,1108.5931,74.829926,1109.222C74.85924,1109.8508,74.60658,1110.4601,74.14081,1110.8837L74.14081,1110.8837C67.98955,1116.477,60.958233,1123.0281,53.11721,1123.1582L53.117218,1123.1582C53.032684,1123.1597,52.9591,1123.1603,52.8745,1123.1603L52.8745,1123.1603C45.19063,1123.1604,37.268147,1117.0253,30.232943,1111.688 Z"/>
</g>
<g style="fill:url(#grad1); fill-opacity:1.0; stroke-linejoin: miter">
<path d="M44.64196,1101.0895L44.64196,1101.0895L42.438404,1095.7325C42.164986,1095.0679,42.482162,1094.3075,43.146847,1094.034C43.811535,1093.7607,44.572014,1094.0778,44.845436,1094.7423L44.845436,1094.7423L47.04899,1100.0992C47.322407,1100.7639,47.005226,1101.5244,46.340546,1101.798C45.67586,1102.0713,44.915382,1101.7542,44.64196,1101.0895 Z"/>
</g>
<g style="fill:url(#grad1); fill-opacity:1.0; stroke-linejoin: miter">
<path d="M51.10972,1099.8967L51.10972,1099.8967L51.08587,1092.6184L53.688583,1092.6099L53.712425,1099.8882L51.10972,1099.8967 M53.712425,1099.8882C53.714783,1100.6068,53.134056,1101.1914,52.415337,1101.1937C51.696617,1101.196,51.112064,1100.6152,51.10972,1099.8967L51.10972,1099.8967L51.08587,1092.6184C51.08352,1091.8997,51.66425,1091.3151,52.382965,1091.3127C53.10169,1091.3104,53.686234,1091.8911,53.688583,1092.6099L53.688583,1092.6099L53.712425,1099.8882 Z"/>
</g>
<g style="fill:url(#grad1); fill-opacity:1.0; stroke-linejoin: miter">
<path d="M56.831562,1099.524L56.831562,1099.524L59.469048,1094.3928C59.79762,1093.7538,60.582165,1093.502,61.22139,1093.8306C61.86061,1094.1592,62.112434,1094.9436,61.783863,1095.5828L61.783863,1095.5828L59.146378,1100.7139C58.81781,1101.3531,58.033264,1101.605,57.394043,1101.2764C56.754814,1100.9478,56.502995,1100.1632,56.831562,1099.524 Z"/>
</g>
</g>
</g>
<g style="fill:rgb(255,255,255); fill-opacity:1.0; stroke-linejoin: miter">
<path d="M59.39992,1109.6038C59.741405,1113.425,56.920475,1116.7997,53.09921,1117.1411C49.27795,1117.4825,45.90337,1114.6617,45.56189,1110.8406C45.220398,1107.0193,48.04132,1103.6448,51.8626,1103.3033C55.683872,1102.9618,59.058445,1105.7826,59.39992,1109.6038 Z"/>
</g>
<g style="fill:url(#grad2); fill-opacity:1.0; stroke-linejoin: miter">
<path d="M56.851498,1109.861C57.066017,1112.2639,55.29157,1114.3857,52.888172,1114.6003C50.484764,1114.815,48.36251,1113.0408,48.147995,1110.638C47.933475,1108.235,49.707916,1106.113,52.11133,1105.8986C54.514732,1105.684,56.63698,1107.458,56.851498,1109.861 Z"/>
</g>
</g>
<g style="fill:rgb(255,255,255); fill-opacity:1.0; stroke-linejoin: miter">
<path d="M58.6949,1014.19086L58.6949,1014.19086L58.6949,1014.19086L58.6949,1014.19086L58.6949,1014.19086L58.6949,1014.19086L58.6949,1014.19086L58.6949,1014.19086L58.6949,1014.19086L58.6949,1014.19086 M58.6949,1033.2164L58.6949,1033.2164L58.6949,1033.2164L58.6949,1033.2164L58.6949,1033.2164L58.6949,1033.2164L58.6949,1033.2164L58.6949,1033.2164L58.6949,1033.2164 Z"/>
</g>
<g style="fill:rgb(255,255,255); fill-opacity:1.0; stroke-linejoin: miter">
<path d="M-56.773727,925.4467L-56.773727,925.4467L-56.773727,925.4467L-56.773727,925.4467L-56.773727,925.4467L-56.773727,925.4467L-56.773727,925.4467L-56.773727,925.4467L-56.773727,925.4467L-56.773727,925.4467 M-56.773727,944.47235L-56.773727,944.47235L-56.773727,944.47235L-56.773727,944.47235L-56.773727,944.47235L-56.773727,944.47235L-56.773727,944.47235L-56.773727,944.47235L-56.773727,944.47235 Z"/>
</g>
</g>
<defs>
<linearGradient id="grad2" gradientUnits="userSpaceOnUse" x1="48.109818" y1="1110.2367" x2="56.86412" y2="1110.2367" >
<stop offset="0.0%" style="stop-color:rgb(253,188,5); stop-opacity:1.0" />
<stop offset="100.0%" style="stop-color:rgb(255,16,2); stop-opacity:1.0" />
</linearGradient>
<linearGradient id="grad1" gradientUnits="userSpaceOnUse" x1="29.39672" y1="1107.2354" x2="74.85925" y2="1107.2355" >
<stop offset="0.0%" style="stop-color:rgb(253,188,5); stop-opacity:1.0" />
<stop offset="100.0%" style="stop-color:rgb(255,16,2); stop-opacity:1.0" />
</linearGradient>
<linearGradient id="grad0" gradientUnits="userSpaceOnUse" x1="24.747711" y1="1139.1927" x2="75.70562" y2="1139.1929" >
<stop offset="0.0%" style="stop-color:rgb(253,192,5); stop-opacity:1.0" />
<stop offset="100.0%" style="stop-color:rgb(255,45,1); stop-opacity:1.0" />
</linearGradient>
</defs>
</svg>