<?xml version="1.0" encoding="utf-8"?>
<svg xmlns="http://www.w3.org/2000/svg" xmlns:xlink="http://www.w3.org/1999/xlink" version= "1.1" width="903px" height="326px" viewBox="-106 925 903 326">
<g id="layer1">
<g>
<g style="fill:rgb(255,255,255); fill-opacity:1.0; stroke-linejoin: miter">
<path d="M287.42346,1084.3633Q275.5002,1084.363,264.5919,1089.1831Q253.93716,1093.7493,247.08777,1103.1357L247.08777,1088.1687L204.72229,1088.169L204.72244,1231.7522L247.0878,1231.7527L247.08774,1150.574Q247.08774,1137.6365,254.19089,1130.5332Q261.29404,1123.6838,274.2319,1123.6838Q285.39398,1123.6838,292.24347,1129.5186Q298.8393,1135.353,298.8393,1145.7539L298.8393,1231.7517L341.2044,1231.7522L341.20435,1137.3823Q341.2044,1124.1912,335.877,1113.029Q330.54974,1102.1208,320.65594,1094.7639Q313.80664,1089.4368,305.68863,1086.8999Q297.5708,1084.3633,287.42346,1084.3633 Z"/>
</g>
<g style="fill:rgb(255,255,255); fill-opacity:1.0; stroke-linejoin: miter">
<path d="M613.1183,1085.6729Q600.1808,1085.6731,590.03345,1092.2688Q583.94525,1095.8203,579.37897,1101.4011Q574.8128,1106.7285,572.52954,1113.5774L572.52954,1088.4634L530.16486,1088.4641L530.1649,1232.0461L572.5296,1232.0464L572.5296,1166.8506Q572.5296,1156.9565,576.33484,1148.8394Q579.8864,1140.9753,586.4818,1135.9014Q595.36084,1129.3059,607.0303,1129.3059Q616.9236,1129.3059,624.7877,1133.3647L634.4276,1090.7466Q626.05615,1085.6729,613.1183,1085.6729 Z"/>
</g>
<g style="fill:rgb(255,255,255); fill-opacity:1.0; stroke-linejoin: miter">
<path d="M470.5827,1028.8071L470.5827,1104.6577Q462.71838,1094.5103,451.55634,1089.4365Q440.39435,1084.363,426.69562,1084.363Q406.90833,1084.363,391.17993,1094.0029Q375.70538,1103.6428,366.82642,1120.8933Q358.20123,1138.1436,358.20123,1159.96Q358.20123,1181.7764,367.08014,1199.0266Q375.70544,1216.2769,391.43365,1225.9165Q406.9084,1235.5564,426.69568,1235.5564Q440.39447,1235.5564,451.55646,1230.4827Q462.71838,1225.4089,470.58258,1215.2617L470.58264,1231.751L512.6937,1231.7512L512.69366,1028.8071 Z M435.57446,1124.1909Q445.2143,1124.1909,453.33228,1129.0107Q461.1964,1133.5771,466.0163,1141.9482Q470.58252,1150.0659,470.58258,1159.9595Q470.58264,1169.8533,465.76276,1178.2249Q461.19647,1186.3423,453.07843,1191.1621Q445.21442,1195.7285,435.5746,1195.7288Q425.93457,1195.7285,417.8167,1190.9087Q409.9525,1186.3425,405.13257,1177.9712Q400.5661,1169.853,400.56628,1159.9597Q400.56622,1150.0662,405.3863,1141.6951Q409.95245,1133.5769,418.07043,1128.7571Q425.93463,1124.1909,435.57446,1124.1909 Z"/>
</g>
<g style="fill:rgb(255,255,255); fill-opacity:1.0; stroke-linejoin: miter">
<path d="M712.48456,1083.0103Q690.6683,1083.01,673.4179,1092.6499Q656.1679,1102.29,646.5279,1119.5398Q636.8881,1136.79,636.8881,1158.6067Q636.88824,1180.4229,646.5279,1197.6729Q656.1678,1214.9231,673.41815,1224.5627Q690.6683,1234.2026,712.48444,1234.2026Q736.0766,1234.2026,755.1027,1221.5186Q773.87494,1208.8345,783.00726,1186.7644L736.58417,1186.7651Q732.5252,1192.0918,726.18304,1194.8823Q719.8414,1197.6729,712.48444,1197.6729Q700.05426,1197.6729,691.6829,1190.8237Q683.31146,1183.9741,680.7747,1171.7976L786.81256,1171.7981Q788.08075,1166.47,788.08075,1158.606Q788.0809,1136.7898,778.4411,1119.5398Q768.80145,1102.2898,751.5511,1092.6499Q734.3011,1083.01,712.48456,1083.0103 Z M712.48456,1118.779Q724.915,1118.779,733.2862,1125.6282Q741.404,1132.4773,744.19464,1144.6543L680.7747,1144.6548Q683.565,1132.4775,691.9367,1125.6282Q700.0545,1118.7788,712.48456,1118.779 Z"/>
</g>
</g>
<g style="fill:url(#grad0); fill-opacity:1.0; stroke-linejoin: miter">
<path d="M49.698933,1073.4518L96.03345,1178.5703Q50.17538,1178.8541,4.317318,1179.1382L49.698933,1073.452L49.698933,1073.4518 Z M47.116966,937.6377L-92.63327,1231.6543L-92.63327,1231.655L49.605743,1231.6509L191.84462,1231.6467Q121.97217,1084.6548,52.09963,937.6626L47.116966,937.6377 Z"/>
</g>
<g style="fill:rgb(255,254,254); fill-opacity:1.0; stroke-linejoin: miter">
</g>
<g style="fill:url(#grad1); fill-opacity:1.0; stroke-linejoin: miter">
<path d="M191.83467,1231.6443L143.98,1205.0847L96.125305,1178.5259Q14.132252,1179.0498,-67.8607,1179.5735Q-80.4987,1206.08,-93.13669,1232.5859L191.83467,1231.6443"/>
</g>
<g style="fill:rgb(253,139,5); fill-opacity:1.0; stroke-linejoin: miter">
</g>
<g style="fill:url(#grad2); fill-opacity:1.0; stroke-linejoin: miter">
<path d="M95.9867,1178.4241L191.82704,1231.6367L52.07753,937.63074L47.117325,937.638L17.1167,1000.77106L95.9867,1178.4241"/>
</g>
<g style="fill:rgb(253,139,5); fill-opacity:1.0; stroke-linejoin: miter">
</g>
<g style="fill:rgb(149,150,152); fill-opacity:1.0; stroke-linejoin: miter">
<path d="M724.32776,-148.37793L731.30206,-150.47018L738.27637,-152.56244L724.32776,-148.37793"/>
</g>
</g>
<defs>
<linearGradient id="grad0" gradientUnits="userSpaceOnUse" x1="-65.59979" y1="1215.3033" x2="53.638077" y2="923.78955" >
<stop offset="0.0%" style="stop-color:rgb(253,192,5); stop-opacity:1.0" />
<stop offset="100.0%" style="stop-color:rgb(255,0,0); stop-opacity:1.0" />
</linearGradient>
<linearGradient id="grad1" gradientUnits="userSpaceOnUse" x1="310.45505" y1="1216.4628" x2="-267.8061" y2="1216.4628" >
<stop offset="0.0%" style="stop-color:rgb(253,192,5); stop-opacity:1.0" />
<stop offset="100.0%" style="stop-color:rgb(255,43,1); stop-opacity:1.0" />
</linearGradient>
<linearGradient id="grad2" gradientUnits="userSpaceOnUse" x1="41.804043" y1="905.41254" x2="223.02472" y2="1285.1306" >
<stop offset="0.0%" style="stop-color:rgb(253,192,5); stop-opacity:1.0" />
<stop offset="100.0%" style="stop-color:rgb(255,0,0); stop-opacity:1.0" />
</linearGradient>
</defs>
</svg>