<?xml version="1.0" encoding="utf-8"?>
<svg xmlns="http://www.w3.org/2000/svg" xmlns:xlink="http://www.w3.org/1999/xlink" version= "1.1" width="50px" height="50px" viewBox="515 1040 50 50">
<g id="layer1">
<g style="fill:rgb(254,193,7); fill-opacity:1.0; stroke-linejoin: miter">
<path d="M563.6336,1065.2275L563.4197,1068.4071Q563.0817,1070.5425,562.45447,1072.4877Q562.32166,1073.5791,559.92194,1077.8961Q557.7997,1081.2166,554.52026,1083.777Q552.8692,1085.0563,551.0879,1085.9974Q550.2786,1086.6793,545.4507,1088.0607Q541.4971,1088.9291,537.0223,1088.4454Q534.88696,1088.1075,532.9417,1087.4803Q531.8503,1087.3475,527.5334,1084.9478Q524.2128,1082.8254,521.6524,1079.5461Q515.93585,1071.6123,516.9044,1063.0562Q517.3302,1058.796,519.0124,1055.1967Q519.85345,1053.397,521.00867,1051.7626Q521.40857,1050.8234,525.1437,1047.2681Q531.35114,1042.0192,540.20184,1041.7958Q544.62714,1041.9075,548.3917,1043.2755Q552.9528,1045.2604,553.6668,1046.0343Q555.3013,1047.1895,556.77057,1048.6588Q559.70917,1051.5973,561.3913,1055.1967Q562.2324,1056.9963,562.7594,1058.9612Q563.2192,1059.8405,563.6336,1065.2275"/>
</g>
<g style="fill:rgb(255,255,255); fill-opacity:1.0; stroke-linejoin: miter">
<path d="M521.2185,1064.5975L522.73645,1063.3073Q527.28613,1059.293,531.87366,1056.5719Q533.40424,1055.7128,534.94324,1055.141L536.4848,1054.659Q538.0017,1054.2579,539.6385,1054.2521Q541.1991,1054.2656,542.77136,1054.6779L544.346,1055.1715Q545.9233,1055.7559,547.5091,1056.63Q551.4714,1058.743,558.6689,1064.7787Q551.59705,1070.879,547.6826,1073.0077Q546.1165,1073.8885,544.5538,1074.4749L542.992,1074.969Q541.45105,1075.3804,539.8354,1075.3864Q538.2552,1075.3726,536.7061,1074.9502L535.1513,1074.4443Q533.5976,1073.8455,532.04724,1072.9496Q528.17053,1070.7839,521.2185,1064.5975"/>
</g>
<g style="fill:rgb(48,48,48); fill-opacity:1.0; stroke-linejoin: miter">
<path d="M521.25134,1064.3838L521.25134,1064.3838C527.3203,1059.3568,533.4932,1054.227,539.79395,1054.227L539.79395,1054.227C539.7939,1054.227,539.8599,1054.2273,539.8599,1054.2273L539.8585,1054.2273L539.8587,1054.2273L539.8601,1054.2273C546.1806,1054.2633,552.56726,1059.4792,558.8489,1064.594C558.90625,1064.6407,558.9397,1064.7107,558.94,1064.7847C558.9403,1064.8586,558.9074,1064.929,558.8504,1064.9761L558.8504,1064.9761C552.49255,1070.2386,546.02716,1075.607,539.7228,1075.607L539.7228,1075.607C539.6973,1075.607,539.6872,1075.607,539.65985,1075.6069L539.6599,1075.6069C533.3314,1075.5712,527.2344,1070.1075,521.2444,1064.7584C521.1907,1064.7104,521.1605,1064.6415,521.16187,1064.5695C521.1632,1064.4974,521.19586,1064.4297,521.25134,1064.3838L521.25134,1064.3838 M521.56665,1064.7644L521.5736,1064.3898C527.6219,1069.791,533.5638,1075.078,539.6627,1075.1125L539.6628,1075.1125C539.6901,1075.1127,539.6934,1075.1127,539.7228,1075.1127L539.7228,1075.1127C545.80817,1075.1127,552.11755,1069.9072,558.5352,1064.5952L558.53674,1064.9773C552.19867,1059.8165,545.9641,1054.7565,539.8573,1054.7217L539.8587,1054.7217L539.8585,1054.7217L539.8571,1054.7217C539.8571,1054.7217,539.7939,1054.7214,539.79395,1054.7214L539.79395,1054.7214C533.7115,1054.7214,527.6906,1059.6918,521.56665,1064.7644 Z"/>
</g>
<g style="fill:rgb(0,0,0); fill-opacity:1.0; stroke-linejoin: miter">
<path d="M557.10516,1022.4824L558.9313,1022.41504L560.7573,1022.34766L557.10516,1022.4824"/>
</g>
<g style="fill:url(#grad0); fill-opacity:1.0; stroke-linejoin: miter">
<path d="M540.0302,1055.487L539.2613,1055.531Q536.2364,1055.8033,534.02594,1057.6241Q535.79266,1059.0522,535.05206,1060.9054Q534.6038,1061.9802,533.381,1062.4092Q532.2999,1062.791,531.0225,1062.0004Q530.42053,1063.9553,530.5781,1065.843Q530.92126,1069.4253,533.63055,1071.9896Q534.2261,1072.5366,534.8986,1072.9666Q536.6472,1073.9386,537.08936,1073.9923Q538.57324,1074.5559,540.73315,1074.4292Q544.23035,1074.26,547.0414,1071.3782Q548.13544,1070.1871,548.7607,1068.6881Q549.3964,1067.3911,549.52167,1064.9785Q549.49896,1064.0824,549.34924,1063.2528Q548.8633,1061.238,548.6134,1060.9153Q547.93207,1059.4574,546.7417,1058.2671Q546.48596,1057.89,544.80566,1056.7678Q544.11005,1056.3636,543.34766,1056.0864Q541.8228,1055.5323,540.0302,1055.487 Z"/>
</g>
<g style="fill:rgb(230,36,36); fill-opacity:1.0; stroke-linejoin: miter">
<path d="M543.0577,1055.9385L542.9951,1059.6865L545.8831,1059.6732L545.8542,1061.9578L548.86,1061.9197L547.95844,1059.6486L546.3619,1057.9678L544.8267,1056.7786L543.0577,1055.9385"/>
</g>
<g style="fill:rgb(244,180,70); fill-opacity:1.0; stroke-linejoin: miter">
<path d="M537.6854,1074.2303L540.26074,1074.5276L543.42224,1073.8835L543.43646,1071.9062L536.6171,1071.8585L536.5771,1070.2242L532.0642,1070.3644L535.0675,1073.2781L537.6854,1074.2303"/>
</g>
<g style="fill:rgb(230,36,36); fill-opacity:1.0; stroke-linejoin: miter">
<path d="M545.56604,1072.9829L544.27277,1073.5452L542.9795,1074.1073Q542.97455,1070.6635,542.96954,1067.2195Q546.1356,1067.1613,549.30164,1067.103Q548.7133,1068.6912,548.12494,1070.2794L545.56604,1072.9829"/>
</g>
<g style="fill:rgb(48,48,48); fill-opacity:1.0; stroke-linejoin: miter">
<path d="M540.0441,1055.3102L539.4548,1055.3278Q536.70483,1055.3733,533.8025,1057.5717Q534.04175,1057.6426,534.2007,1057.7848Q536.23615,1056.1388,538.9542,1055.7897Q541.3051,1055.499,543.67456,1056.4597Q544.794,1056.935,545.7436,1057.6703Q546.69293,1058.4048,547.4277,1059.3544L548.0977,1060.3463Q549.3415,1062.4487,549.37115,1065.0537L549.286,1066.3193Q549.11383,1067.5645,548.6382,1068.6841Q547.66473,1070.9456,545.7435,1072.4373Q542.7861,1074.7285,538.77856,1074.2957L537.56464,1074.0475Q536.3767,1073.718,535.3366,1073.1072Q533.2344,1071.8635,531.99054,1069.7611Q531.37976,1068.7212,531.0503,1067.5331L530.80225,1066.3192Q530.5415,1063.8569,531.2051,1062.0854L530.8175,1061.9152Q530.06494,1064.331,530.3896,1066.3759Q530.77234,1069.0006,532.3309,1071.0077Q533.88916,1073.0143,536.2515,1074.0315Q537.4211,1074.5286,538.722,1074.7083L540.0441,1074.7972Q544.1845,1074.6926,546.93384,1071.9434Q549.6832,1069.1938,549.78766,1065.0537Q549.6832,1060.9136,546.93384,1058.1641Q544.1845,1055.4148,540.0441,1055.3102 Z"/>
</g>
<g style="fill:rgb(0,0,0); fill-opacity:1.0; stroke-linejoin: miter">
</g>
<g style="fill:rgb(0,0,0); fill-opacity:1.0; stroke-linejoin: miter">
<path d="M516.64575,1027.0459L516.64575,1027.0459L516.64575,1027.0459L516.64575,1027.0459L516.64575,1027.0459L516.64575,1027.0459L516.64575,1027.0459L516.64575,1027.0459L516.64575,1027.0459L516.64575,1027.0459 M516.64575,1027.5693L516.64575,1027.5693L516.64575,1027.5693L516.64575,1027.5693L516.64575,1027.5693L516.64575,1027.5693L516.64575,1027.5693L516.64575,1027.5693L516.64575,1027.5693 Z"/>
</g>
<g style="fill:url(#grad1); fill-opacity:1.0; stroke-linejoin: miter">
<path d="M544.5464,1065.1431L544.50366,1065.778Q544.2,1067.6969,542.7265,1068.8474Q541.2428,1069.997,539.2322,1069.7797Q537.3133,1069.476,536.16284,1068.0024Q535.79425,1067.5261,535.5556,1066.9645L535.35504,1066.387Q535.1897,1065.791,535.18787,1065.1431Q535.23804,1063.1547,536.5584,1061.8344Q537.8787,1060.514,539.8671,1060.4639Q541.8555,1060.514,543.1759,1061.8344Q544.4962,1063.1547,544.5464,1065.1431"/>
</g>
<g style="fill:rgb(255,255,255); fill-opacity:1.0; stroke-linejoin: miter">
<path d="M538.50586,1063.2078L538.4883,1063.3356Q538.3997,1063.7196,538.08527,1063.9315Q537.7688,1064.1431,537.3651,1064.0707Q536.9812,1063.982,536.7693,1063.6676Q536.7014,1063.566,536.6611,1063.449L536.62866,1063.3293Q536.60364,1063.2064,536.6124,1063.0753Q536.6507,1062.6737,536.9365,1062.4252Q537.22235,1062.1766,537.62537,1062.1946Q538.0269,1062.2329,538.2754,1062.5188Q538.52386,1062.8047,538.50586,1063.2078"/>
</g>
</g>
<defs>
<linearGradient id="grad0" gradientUnits="userSpaceOnUse" x1="515.7768" y1="1042.4663" x2="538.7904" y2="1065.4799" >
<stop offset="0.0%" style="stop-color:rgb(255,255,255); stop-opacity:1.0" />
<stop offset="100.0%" style="stop-color:rgb(54,114,214); stop-opacity:1.0" />
</linearGradient>
<radialGradient id="grad1" gradientUnits="userSpaceOnUse" cx="523.00006" cy="1044.0189" r="31.008877" >
<stop offset="0.0%" style="stop-color:rgb(230,36,36); stop-opacity:1.0" />
<stop offset="0.0%" style="stop-color:rgb(230,36,36); stop-opacity:1.0" />
<stop offset="0.0%" style="stop-color:rgb(255,255,255); stop-opacity:1.0" />
<stop offset="100.0%" style="stop-color:rgb(0,0,0); stop-opacity:1.0" />
</radialGradient>
</defs>
</svg>