<?xml version="1.0" encoding="utf-8"?>
<svg xmlns="http://www.w3.org/2000/svg" xmlns:xlink="http://www.w3.org/1999/xlink" version= "1.1" width="1280px" height="369px" viewBox="-100 881 1280 369">
<g id="layer1">
<g>
<g style="fill:rgb(255,255,255); fill-opacity:1.0; stroke-linejoin: miter">
<path d="M343.56635,992.74426Q324.2436,992.74426,306.5653,1000.55566Q289.29813,1007.9558,278.1978,1023.1674L278.1978,998.91113L209.54025,998.9121L209.54025,1231.6068L278.1978,1231.6078L278.1978,1100.0474Q278.1978,1079.0801,289.70926,1067.5687Q301.2207,1056.4684,322.188,1056.4684Q340.2774,1056.4684,351.37772,1065.9242Q362.06693,1075.38,362.06693,1092.2361L362.06693,1231.6068L430.72446,1231.6078L430.72446,1078.6691Q430.72446,1057.2906,422.09085,1039.2012Q413.45728,1021.5229,397.42346,1009.60034Q386.32318,1000.96674,373.1672,996.8555Q360.0113,992.74426,343.56635,992.74426 Z"/>
</g>
<g style="fill:rgb(255,255,255); fill-opacity:1.0; stroke-linejoin: miter">
<path d="M882.5487,994.3888Q861.58136,994.3888,845.1365,1005.078Q835.26953,1010.83374,827.8694,1019.8784Q820.4691,1028.512,816.769,1039.6123L816.769,998.91113L748.1115,998.9121L748.1115,1231.6068L816.769,1231.6078L816.769,1125.9482Q816.769,1109.9143,822.93585,1096.7584Q828.6916,1084.0137,839.3808,1075.7911Q853.7701,1065.1019,872.68176,1065.1019Q888.7156,1065.1019,901.4603,1071.6799L917.08307,1002.6112Q903.516,994.3888,882.5487,994.3888 Z"/>
</g>
<g style="fill:rgb(255,255,255); fill-opacity:1.0; stroke-linejoin: miter">
<path d="M640.3972,902.7084L640.3972,1025.6342Q627.6524,1009.1892,609.563,1000.96674Q591.4736,992.74426,569.27295,992.74426Q537.2053,992.74426,511.71567,1008.36694Q486.63718,1023.9896,472.2479,1051.946Q458.26968,1079.9023,458.26968,1115.259Q458.26968,1150.6155,472.65903,1178.5719Q486.63718,1206.5283,512.12683,1222.1509Q537.2053,1237.7737,569.27295,1237.7737Q591.4736,1237.7737,609.563,1229.5511Q627.6524,1221.3287,640.3972,1204.8838L640.3972,1231.6068L708.6436,1231.6078L708.6436,902.7084 Z M583.66223,1057.2906Q599.2849,1057.2906,612.44086,1065.1019Q625.18567,1072.5022,632.997,1086.0692Q640.3972,1099.2251,640.3972,1115.259Q640.3972,1131.2927,632.5859,1144.8599Q625.18567,1158.0157,612.0297,1165.8271Q599.2849,1173.2273,583.66223,1173.2273Q568.0396,1173.2273,554.8836,1165.416Q542.1388,1158.0157,534.3275,1144.4487Q526.9273,1131.2927,526.9273,1115.259Q526.9273,1099.2251,534.7386,1085.6581Q542.1388,1072.5022,555.2948,1064.6908Q568.0396,1057.2906,583.66223,1057.2906 Z"/>
</g>
<g style="fill:rgb(255,255,255); fill-opacity:1.0; stroke-linejoin: miter">
<path d="M1050.6979,992.74426Q1015.3414,992.74426,987.3851,1008.36694Q959.42865,1023.9896,943.80597,1051.946Q928.1833,1079.9023,928.1833,1115.259Q928.1833,1150.6155,943.80597,1178.5719Q959.42865,1206.5283,987.3851,1222.1509Q1015.3414,1237.7737,1050.6979,1237.7737Q1088.9324,1237.7737,1119.7666,1217.2175Q1150.1897,1196.6614,1164.9901,1160.8936L1089.7546,1160.8945Q1083.1766,1169.5272,1072.8986,1174.0496Q1062.6205,1178.5719,1050.6979,1178.5719Q1030.5529,1178.5719,1016.9859,1167.4716Q1003.41876,1156.3712,999.30756,1136.6373L1171.157,1136.6383Q1173.2125,1128.0038,1173.2125,1115.259Q1173.2125,1079.9023,1157.5898,1051.946Q1141.9673,1023.9896,1114.0109,1008.36694Q1086.0544,992.74426,1050.6979,992.74426 Z M1050.6979,1050.7126Q1070.8429,1050.7126,1084.41,1061.813Q1097.5659,1072.9133,1102.0883,1092.6472L999.30756,1092.6482Q1003.8299,1072.9133,1017.39703,1061.813Q1030.5529,1050.7126,1050.6979,1050.7126 Z"/>
</g>
</g>
<g style="fill:rgb(255,255,255); fill-opacity:1.0; stroke-linejoin: miter">
<path d="M-1.4743958,1182.371L-1.4743805,1182.3711Q24.351812,1124.5956,50.17798,1066.82Q77.91463,1123.4913,105.651276,1180.1626L-1.4743958,1182.371"/>
</g>
<g style="fill:url(#grad0); fill-opacity:1.0; stroke-linejoin: miter">
<path d="M49.69892,1073.4518L96.03339,1178.5704Q50.175358,1178.8542,4.3173246,1179.1382L49.69892,1073.4523L49.69892,1073.4518 Z M47.116905,937.6375L-92.63328,1231.6543L-92.63328,1231.6543L49.605675,1231.6506L191.84464,1231.647Q121.972115,1084.6548,52.099586,937.66266L47.116905,937.6375 Z"/>
</g>
<g style="fill:rgb(255,254,254); fill-opacity:1.0; stroke-linejoin: miter">
<path d="M129.19048,747.4772L129.19052,747.4778L129.19057,747.4784L129.19048,747.4772"/>
</g>
<g style="fill:url(#grad1); fill-opacity:1.0; stroke-linejoin: miter">
<path d="M191.83466,1231.6443L143.98,1205.0852L96.125305,1178.5261Q14.132263,1179.0499,-67.86078,1179.5736Q-80.49875,1206.0798,-93.13672,1232.586L191.83466,1231.6443"/>
</g>
<g style="fill:rgb(253,139,5); fill-opacity:1.0; stroke-linejoin: miter">
<path d="M139.0973,941.50006L139.09727,941.5004L139.09724,941.50085L139.0973,941.50006"/>
</g>
<g style="fill:url(#grad2); fill-opacity:1.0; stroke-linejoin: miter">
<path d="M95.986664,1178.4243L95.98671,1178.4243L191.82706,1231.637L52.07752,937.6307Q50.877487,1005.46594,49.67746,1073.3011L95.986664,1178.4243"/>
</g>
<g style="fill:rgb(253,139,5); fill-opacity:1.0; stroke-linejoin: miter">
<path d="M58.79448,1010.68054L58.794525,1010.68066L58.79457,1010.6808L58.79448,1010.68054"/>
</g>
</g>
<defs>
<linearGradient id="grad1" gradientUnits="userSpaceOnUse" x1="310.45514" y1="1216.4629" x2="-267.80615" y2="1216.4629" >
<stop offset="0.0%" style="stop-color:rgb(253,192,5); stop-opacity:1.0" />
<stop offset="100.0%" style="stop-color:rgb(255,43,1); stop-opacity:1.0" />
</linearGradient>
<linearGradient id="grad0" gradientUnits="userSpaceOnUse" x1="-65.5998" y1="1215.3035" x2="53.638123" y2="923.7898" >
<stop offset="0.0%" style="stop-color:rgb(253,192,5); stop-opacity:1.0" />
<stop offset="100.0%" style="stop-color:rgb(255,0,0); stop-opacity:1.0" />
</linearGradient>
<linearGradient id="grad2" gradientUnits="userSpaceOnUse" x1="41.803986" y1="905.4125" x2="223.02469" y2="1285.1306" >
<stop offset="0.0%" style="stop-color:rgb(253,192,5); stop-opacity:1.0" />
<stop offset="100.0%" style="stop-color:rgb(255,0,0); stop-opacity:1.0" />
</linearGradient>
</defs>
</svg>