<?xml version="1.0" encoding="utf-8"?>
<svg xmlns="http://www.w3.org/2000/svg" xmlns:xlink="http://www.w3.org/1999/xlink" version= "1.1" width="285px" height="163px" viewBox="-93 1059 285 163">
<g id="layer1">
<g style="fill:url(#grad0); fill-opacity:1.0; stroke-linejoin: miter">
<path d="M60.950077,1172.1938L60.95008,1172.194L60.950073,1172.1937L60.950077,1172.1938L60.95007,1172.1937L60.950085,1172.194L60.950077,1172.1938L60.95008,1172.194L60.950073,1172.1937L60.950077,1172.1938L60.95007,1172.1937L60.950085,1172.194L60.950077,1172.1938L60.95008,1172.194L60.950073,1172.1937L60.950077,1172.1938L60.95007,1172.1937L60.950085,1172.194L60.950077,1172.1938L60.95008,1172.194L60.950073,1172.1937L60.950077,1172.1938L60.95007,1172.1937L60.950085,1172.194L60.950077,1172.1938"/>
</g>
<g style="fill:url(#grad0); fill-opacity:1.0; stroke-linejoin: miter">
<path d="M28.547842,1137.1187L28.482899,1137.0712L28.48549,1137.073L28.55044,1137.1205C36.979496,1143.515,44.4134,1149.0148,51.063484,1149.0148L51.063484,1149.0148C51.13436,1149.0148,51.189373,1149.0143,51.255135,1149.0132L51.25685,1149.0132C57.864643,1148.9034,64.29627,1143.2312,71.71366,1136.4862L71.883606,1140.1312C64.180534,1134.3386,57.40418,1129.3707,50.755505,1129.3707L50.755505,1129.3707C50.67526,1129.3707,50.616295,1129.3711,50.540524,1129.3724L50.53918,1129.3724C43.786465,1129.4846,36.630104,1134.7743,28.54586,1140.8938L28.547842,1137.1187 M25.685118,1140.8923C25.094538,1140.4443,24.747808,1139.7456,24.748198,1139.0043C24.748587,1138.263,25.096045,1137.5646,25.6871,1137.1172L25.6871,1137.1172C33.287796,1131.3636,41.81639,1124.7803,50.460484,1124.6366L50.45914,1124.6366C50.5728,1124.6346,50.646385,1124.6342,50.755505,1124.6342L50.755505,1124.6342C59.327534,1124.6342,67.49133,1130.9019,74.73036,1136.3456C75.29435,1136.7697,75.63983,1137.4232,75.6727,1138.128C75.70557,1138.8329,75.42239,1139.5159,74.90031,1139.9906L74.90031,1139.9906C68.00584,1146.26,60.123955,1153.6031,51.335472,1153.749L51.33719,1153.749C51.233852,1153.7509,51.16193,1153.7513,51.063484,1153.7513L51.063484,1153.7513C42.451412,1153.7513,33.572674,1146.876,25.687704,1140.8942L25.752653,1140.9417L25.750061,1140.9398 Z"/>
</g>
<g style="fill:rgb(255,255,255); fill-opacity:1.0; stroke-linejoin: miter">
<path d="M60.950077,1172.1938L60.95008,1172.194L60.950073,1172.1937L60.950077,1172.1938L60.95007,1172.1937L60.950085,1172.194L60.950077,1172.1938L60.95008,1172.194L60.950073,1172.1937L60.950077,1172.1938L60.95007,1172.1937L60.950085,1172.194L60.950077,1172.1938L60.95008,1172.194L60.950073,1172.1937L60.950077,1172.1938L60.95007,1172.1937L60.950085,1172.194L60.950077,1172.1938L60.95008,1172.194L60.950073,1172.1937L60.950077,1172.1938L60.95007,1172.1937L60.950085,1172.194L60.950077,1172.1938"/>
</g>
<g style="fill:rgb(255,254,254); fill-opacity:1.0; stroke-linejoin: miter">
</g>
<g style="fill:rgb(253,139,5); fill-opacity:1.0; stroke-linejoin: miter">
</g>
<g style="fill:rgb(253,139,5); fill-opacity:1.0; stroke-linejoin: miter">
</g>
<g style="fill:rgb(149,150,152); fill-opacity:1.0; stroke-linejoin: miter">
<path d="M724.3277,-148.37798L731.302,-150.47023L738.27625,-152.56248L724.3277,-148.37798"/>
</g>
<g style="fill:rgb(255,255,255); fill-opacity:1.0; stroke-linejoin: miter">
<path d="M14.912544,1073.287L14.912544,1073.287L14.912544,1073.287L14.912544,1073.287L14.912544,1073.287L14.912544,1073.287L14.912544,1073.287L14.912544,1073.287L14.912544,1073.287L14.912544,1073.287 M14.912544,1077.0326L14.912544,1077.0326L14.912544,1077.0326L14.912544,1077.0326L14.912544,1077.0326L14.912544,1077.0326L14.912544,1077.0326L14.912544,1077.0326L14.912544,1077.0326 Z"/>
</g>
<g style="fill:url(#grad1); fill-opacity:1.0; stroke-linejoin: miter">
<path d="M77.611404,1139.64C78.1297,1154.4497,66.55096,1166.876,51.749565,1167.3938C36.948135,1167.912,24.529053,1156.3258,24.01076,1141.5161C23.492472,1126.7058,35.07123,1114.28,49.87265,1113.7615C64.67406,1113.2437,77.093124,1124.83,77.611404,1139.64 Z"/>
</g>
<g style="fill:rgb(255,255,255); fill-opacity:1.0; stroke-linejoin: miter">
<path d="M71.05101,1139.2811L71.05101,1139.2811C71.76709,1150.4601,63.285896,1160.102,52.1079,1160.8179L52.108013,1160.8179C40.929707,1161.5342,31.287762,1153.0531,30.571667,1141.8741L30.571667,1141.8741C29.855566,1130.6958,38.33675,1121.0537,49.5147,1120.3374L49.514816,1120.3374C60.693005,1119.6213,70.334946,1128.1031,71.05101,1139.2811L71.05101,1139.2811 M64.062515,1139.7291L64.062515,1139.7291C63.593643,1132.4098,57.28072,1126.8573,49.962463,1127.326L49.962578,1127.326C42.64403,1127.795,37.091316,1134.1075,37.560158,1141.4264L37.560158,1141.4264C38.02903,1148.7462,44.341835,1154.2981,51.660133,1153.8291L51.660248,1153.8291C58.97865,1153.3606,64.53134,1147.0482,64.062515,1139.7291 Z"/>
</g>
<g style="fill:url(#grad2); fill-opacity:1.0; stroke-linejoin: miter">
<path d="M-3.6122773,1133.5533L-3.7711365,1133.4313L-3.7647965,1133.4357L-3.605922,1133.558C16.998705,1149.9913,35.17915,1164.1366,51.73983,1164.5381L51.73983,1164.5381C51.916336,1164.5425,52.053364,1164.5444,52.217205,1164.5459L52.221478,1164.5459C68.68346,1164.6714,85.042725,1150.9343,103.92161,1134.5854L104.124664,1143.6729C85.29161,1128.7823,68.71653,1116.0015,52.159363,1115.5999L52.159363,1115.5999C51.959526,1115.595,51.812675,1115.5923,51.6239,1115.5911L51.620552,1115.5908C34.79752,1115.4626,16.656551,1128.2034,-3.8452332,1142.9545L-3.6122773,1133.5533 M-10.969244,1142.778C-12.412902,1141.6266,-13.234161,1139.8658,-13.188416,1138.0197C-13.142669,1136.1735,-12.235213,1134.4552,-10.736295,1133.3768L-10.736295,1133.3768C8.539214,1119.5079,30.175589,1103.6283,51.710625,1103.7926L51.707283,1103.7926C51.99044,1103.7946,52.17372,1103.7977,52.445457,1103.8043L52.445457,1103.8043C73.79236,1104.322,93.74407,1120.4237,111.442566,1134.4171C112.82146,1135.5074,113.642334,1137.1559,113.68161,1138.913C113.72089,1140.6703,112.974464,1142.3539,111.64563,1143.5048L111.64563,1143.5048C94.0977,1158.7012,74.025955,1176.5117,52.13122,1176.3442L52.1355,1176.3445C51.878044,1176.3425,51.698914,1176.3394,51.45375,1176.3335L51.45375,1176.3335C30.007141,1175.8132,8.311705,1158.1555,-10.962915,1142.7826L-10.80404,1142.9049L-10.81038,1142.9003 Z"/>
</g>
<g style="fill:url(#grad3); fill-opacity:1.0; stroke-linejoin: miter">
<path d="M55.265324,1140.3834C55.372395,1142.8417,53.465157,1144.9215,51.005318,1145.0287C48.5455,1145.1359,46.46464,1143.2299,46.35754,1140.7716C46.250477,1138.3134,48.15773,1136.2333,50.617554,1136.1263C53.07737,1136.0189,55.158268,1137.9249,55.265324,1140.3834 Z"/>
</g>
<g style="fill:url(#grad4); fill-opacity:1.0; stroke-linejoin: miter">
<path d="M-67.87143,1130.452L-67.87143,1130.452C-22.64767,1164.7487,17.401482,1194.4148,53.342724,1195.2865L53.342724,1195.2865C54.21954,1195.3077,55.113102,1195.3109,55.984905,1195.2965L55.983547,1195.2965C92.02029,1194.6913,127.086845,1163.7532,167.53297,1126.9602L168.46335,1146.8395C127.192406,1115.8153,90.74617,1089.0654,54.99051,1088.1981L54.99051,1088.1981C53.998497,1088.174,53.039536,1088.1705,52.050575,1088.1871L52.05101,1088.1871C15.2245,1088.8054,-23.795818,1117.6587,-67.87866,1151.041L-67.87143,1130.452 M-83.48134,1151.0358C-86.70268,1148.5924,-88.59435,1144.7822,-88.592926,1140.7393C-88.5915,1136.6963,-86.69719,1132.8872,-83.47408,1130.4465L-83.47408,1130.4465C-42.029617,1099.0621,4.476521,1063.149,51.617374,1062.3574L51.617817,1062.3574C52.9628,1062.335,54.27735,1062.3406,55.616875,1062.373L55.616875,1062.373C101.43276,1063.4841,145.12,1096.9738,183.98587,1126.1898C187.06223,1128.5023,188.94708,1132.0665,189.127,1135.9109C189.30693,1139.7554,187.7631,1143.4795,184.91624,1146.0691L184.91624,1146.0691C147.3216,1180.2684,104.34723,1220.3215,56.417175,1221.1261L56.415817,1221.1261C55.187366,1221.1466,53.947155,1221.1417,52.71635,1221.1117L52.71635,1221.1117C6.512676,1219.9912,-41.06953,1183.1996,-83.48134,1151.0358 Z"/>
</g>
<g style="fill:rgb(0,0,0); fill-opacity:1.0; stroke-linejoin: miter">
<path d="M405.93713,1429.671Q405.6996,1429.8131,495.4665,1434.4509L524.27246,1434.8279Q543.05023,1436.7079,558.78564,1436.8716Q566.6126,1439.2139,578.65564,1439.54L603.7926,1439.688Q606.5437,1439.8422,608.3737,1440.1204Q620.4315,1441.8433,627.3558,1444.233L690.07043,1469.1895 Z"/>
</g>
</g>
<defs>
<linearGradient id="grad2" gradientUnits="userSpaceOnUse" x1="-13.201012" y1="1138.4889" x2="113.69928" y2="1141.567" >
<stop offset="0.0%" style="stop-color:rgb(253,192,5); stop-opacity:1.0" />
<stop offset="100.0%" style="stop-color:rgb(255,45,1); stop-opacity:1.0" />
</linearGradient>
<linearGradient id="grad1" gradientUnits="userSpaceOnUse" x1="-9.592903" y1="1139.1852" x2="110.18528" y2="1142.0902" >
<stop offset="0.0%" style="stop-color:rgb(253,192,5); stop-opacity:1.0" />
<stop offset="100.0%" style="stop-color:rgb(255,45,1); stop-opacity:1.0" />
</linearGradient>
<linearGradient id="grad0" gradientUnits="userSpaceOnUse" x1="24.747711" y1="1139.1927" x2="75.70562" y2="1139.1929" >
<stop offset="0.0%" style="stop-color:rgb(253,192,5); stop-opacity:1.0" />
<stop offset="100.0%" style="stop-color:rgb(255,45,1); stop-opacity:1.0" />
</linearGradient>
<linearGradient id="grad4" gradientUnits="userSpaceOnUse" x1="-88.59439" y1="1141.7681" x2="189.30647" y2="1141.7188" >
<stop offset="0.0%" style="stop-color:rgb(253,192,5); stop-opacity:1.0" />
<stop offset="100.0%" style="stop-color:rgb(255,45,1); stop-opacity:1.0" />
</linearGradient>
<linearGradient id="grad3" gradientUnits="userSpaceOnUse" x1="32.407417" y1="1138.3895" x2="55.292095" y2="1140.5775" >
<stop offset="0.0%" style="stop-color:rgb(255,255,255); stop-opacity:1.0" />
<stop offset="100.0%" style="stop-color:rgb(0,0,0); stop-opacity:1.0" />
</linearGradient>
</defs>
</svg>