<?xml version="1.0" encoding="utf-8"?>
<svg xmlns="http://www.w3.org/2000/svg" xmlns:xlink="http://www.w3.org/1999/xlink" version= "1.1" width="309px" height="326px" viewBox="-106 925 309 326">
<g id="layer1">
<g style="fill:url(#grad0); fill-opacity:1.0; stroke-linejoin: miter">
<path d="M61.20408,1138.7708L61.19249,1140.2356Q60.756474,1144.6864,57.52913,1147.5308Q54.278244,1150.3743,49.631004,1150.1488Q45.182693,1149.7123,42.339737,1146.4829Q41.428253,1145.4386,40.803658,1144.1804L40.26434,1142.8809Q39.803528,1141.5338,39.71098,1140.0452Q39.555305,1135.4691,42.407764,1132.2552Q45.260223,1129.0414,49.819984,1128.6553Q54.393433,1128.4998,57.605675,1131.354Q60.817924,1134.2083,61.20408,1138.7708"/>
</g>
<g style="fill:url(#grad1); fill-opacity:1.0; stroke-linejoin: miter">
<path d="M60.95008,1172.194L60.950085,1172.1941L60.950077,1172.1938L60.95008,1172.194L60.950073,1172.1938L60.95009,1172.1941L60.95008,1172.194L60.950085,1172.1941L60.950077,1172.1938L60.95008,1172.194L60.950073,1172.1938L60.95009,1172.1941L60.95008,1172.194L60.950085,1172.1941L60.950077,1172.1938L60.95008,1172.194L60.950073,1172.1938L60.95009,1172.1941L60.95008,1172.194L60.950085,1172.1941L60.950077,1172.1938L60.95008,1172.194L60.950073,1172.1938L60.95009,1172.1941L60.95008,1172.194"/>
</g>
<g style="fill:url(#grad1); fill-opacity:1.0; stroke-linejoin: miter">
<path d="M28.547926,1137.1187L28.547926,1137.1187C36.977486,1143.5135,44.41317,1149.0146,51.063488,1149.0146L51.063488,1149.0146C51.134354,1149.0146,51.189377,1149.0142,51.25514,1149.0131L51.25685,1149.0131C57.864407,1148.9033,64.29631,1143.2311,71.71356,1136.4861L71.88351,1140.1312C64.1806,1134.3386,57.404003,1129.3707,50.75551,1129.3707L50.75551,1129.3707C50.6942,1129.3707,50.59735,1129.3715,50.540524,1129.3724L50.53918,1129.3724C43.786457,1129.4846,36.63025,1134.7742,28.545963,1140.8939L28.547926,1137.1187 M25.685038,1140.8923C25.094427,1140.4443,24.747677,1139.7456,24.748062,1139.0043C24.748447,1138.263,25.09591,1137.5645,25.687,1137.1171L25.687,1137.1171C33.287754,1131.3634,41.816277,1124.78,50.460476,1124.6364L50.459133,1124.6364C50.55385,1124.6348,50.665325,1124.6339,50.75551,1124.6339L50.75551,1124.6339C59.327408,1124.6339,67.49161,1130.9016,74.73048,1136.3453C75.29448,1136.7695,75.63998,1137.423,75.672844,1138.1279C75.70571,1138.8329,75.4225,1139.5157,74.90042,1139.9905L74.90042,1139.9905C68.005714,1146.2603,60.12428,1153.6033,51.33548,1153.7491L51.337193,1153.7491C51.233856,1153.751,51.161922,1153.7515,51.063488,1153.7515L51.063488,1153.7515C42.450783,1153.7515,33.570503,1146.8744,25.685038,1140.8923 Z"/>
</g>
<g style="fill:rgb(255,255,255); fill-opacity:1.0; stroke-linejoin: miter">
<path d="M60.95008,1172.194L60.950085,1172.1941L60.950077,1172.1938L60.95008,1172.194L60.950073,1172.1938L60.95009,1172.1941L60.95008,1172.194L60.950085,1172.1941L60.950077,1172.1938L60.95008,1172.194L60.950073,1172.1938L60.95009,1172.1941L60.95008,1172.194L60.950085,1172.1941L60.950077,1172.1938L60.95008,1172.194L60.950073,1172.1938L60.95009,1172.1941L60.95008,1172.194L60.950085,1172.1941L60.950077,1172.1938L60.95008,1172.194L60.950073,1172.1938L60.95009,1172.1941L60.95008,1172.194"/>
</g>
<g style="fill:rgb(255,254,254); fill-opacity:1.0; stroke-linejoin: miter">
</g>
<g style="fill:rgb(253,139,5); fill-opacity:1.0; stroke-linejoin: miter">
</g>
<g style="fill:rgb(255,255,255); fill-opacity:1.0; stroke-linejoin: miter">
<path d="M49.698933,1073.4518L96.03345,1178.5703Q50.17538,1178.8541,4.317318,1179.1382L49.698933,1073.452L49.698933,1073.4518 Z M47.116966,937.6377L-92.63327,1231.6543L-92.63327,1231.655L49.605743,1231.6509L191.84462,1231.6467Q121.97217,1084.6548,52.09963,937.6626L47.116966,937.6377 Z"/>
</g>
<g style="fill:url(#grad2); fill-opacity:1.0; stroke-linejoin: miter">
<path d="M137.23111,1231.6177L120.36567,1213.1941L103.500244,1194.7705Q50.665672,1195.8608,-2.1689072,1196.9513Q-8.623687,1214.2913,-15.078468,1231.6313L137.23111,1231.6177"/>
</g>
<g style="fill:rgb(255,255,255); fill-opacity:1.0; stroke-linejoin: miter">
<path d="M118.34144,1231.6509L155.08423,1231.6438L191.82704,1231.6367Q121.95228,1084.6338,52.07753,937.63074L47.117325,937.6381Q32.117012,969.2046,17.1167,1000.7711L118.34144,1231.6509"/>
</g>
<g style="fill:rgb(253,139,5); fill-opacity:1.0; stroke-linejoin: miter">
</g>
<g style="fill:rgb(149,150,152); fill-opacity:1.0; stroke-linejoin: miter">
<path d="M724.32776,-148.37793L731.30206,-150.47018L738.27637,-152.56244L724.32776,-148.37793"/>
</g>
<g style="fill:rgb(255,255,255); fill-opacity:1.0; stroke-linejoin: miter">
<path d="M58.56779,1138.6908L58.56779,1138.6908C58.963943,1143.1699,55.654007,1147.1221,51.17485,1147.5181L51.1749,1147.5181C46.69577,1147.9142,42.743614,1144.6044,42.34746,1140.1252L42.34746,1140.1252C41.951336,1135.6461,45.261204,1131.6937,49.740356,1131.2976L49.7404,1131.2976C54.21949,1130.9016,58.171665,1134.2117,58.56779,1138.6908L58.56779,1138.6908 M55.767353,1138.9384L55.767353,1138.9384C55.508,1136.0057,52.920475,1133.8389,49.987995,1134.0981L49.988037,1134.0981C47.055584,1134.3575,44.888523,1136.9448,45.1479,1139.8777L45.1479,1139.8777C45.40725,1142.81,47.994728,1144.9769,50.92721,1144.7175L50.92726,1144.7175C53.85965,1144.4583,56.026752,1141.8713,55.767353,1138.9384 Z"/>
</g>
<g style="fill:rgb(255,255,255); fill-opacity:1.0; stroke-linejoin: miter">
<path d="M14.912552,1073.2867L14.912552,1073.2867L14.912552,1073.2867L14.912552,1073.2867L14.912552,1073.2867L14.912552,1073.2867L14.912552,1073.2867L14.912552,1073.2867L14.912552,1073.2867L14.912552,1073.2867 M14.912552,1077.0328L14.912552,1077.0328L14.912552,1077.0328L14.912552,1077.0328L14.912552,1077.0328L14.912552,1077.0328L14.912552,1077.0328L14.912552,1077.0328L14.912552,1077.0328 Z"/>
</g>
<g style="fill:url(#grad1); fill-opacity:1.0; stroke-linejoin: miter">
<path d="M28.547926,1137.1187L28.547926,1137.1187C36.977486,1143.5135,44.41317,1149.0146,51.063488,1149.0146L51.063488,1149.0146C51.134354,1149.0146,51.189377,1149.0142,51.25514,1149.0131L51.25685,1149.0131C57.864407,1148.9033,64.29631,1143.2311,71.71356,1136.4861L71.88351,1140.1312C64.1806,1134.3386,57.404003,1129.3707,50.75551,1129.3707L50.75551,1129.3707C50.6942,1129.3707,50.59735,1129.3715,50.540524,1129.3724L50.53918,1129.3724C43.786457,1129.4846,36.63025,1134.7742,28.545963,1140.8939L28.547926,1137.1187 M25.685038,1140.8923C25.094427,1140.4443,24.747677,1139.7456,24.748062,1139.0043C24.748447,1138.263,25.09591,1137.5645,25.687,1137.1171L25.687,1137.1171C33.287754,1131.3634,41.816277,1124.78,50.460476,1124.6364L50.459133,1124.6364C50.55385,1124.6348,50.665325,1124.6339,50.75551,1124.6339L50.75551,1124.6339C59.327408,1124.6339,67.49161,1130.9016,74.73048,1136.3453C75.29448,1136.7695,75.63998,1137.423,75.672844,1138.1279C75.70571,1138.8329,75.4225,1139.5157,74.90042,1139.9905L74.90042,1139.9905C68.005714,1146.2603,60.12428,1153.6033,51.33548,1153.7491L51.337193,1153.7491C51.233856,1153.751,51.161922,1153.7515,51.063488,1153.7515L51.063488,1153.7515C42.450783,1153.7515,33.570503,1146.8744,25.685038,1140.8923 Z"/>
</g>
<g style="fill:rgb(0,0,0); fill-opacity:1.0; stroke-linejoin: miter">
<path d="M52.24327,1139.2869L52.243404,1139.5302Q52.177185,1140.2698,51.644676,1140.7465Q51.108253,1141.2233,50.335392,1141.1925Q49.5953,1141.1263,49.118153,1140.5942Q48.96516,1140.4222,48.85956,1140.2142L48.768074,1139.9991Q48.689575,1139.7762,48.672096,1139.5292Q48.639774,1138.7695,49.10944,1138.2319Q49.579105,1137.6943,50.336575,1137.6237Q51.09663,1137.5913,51.63464,1138.0605Q52.17265,1138.5299,52.24327,1139.2869"/>
</g>
<g style="fill:url(#grad3); fill-opacity:1.0; stroke-linejoin: miter">
<path d="M2.728905,1136.4996L2.728905,1136.4996C21.519907,1150.0449,38.087917,1161.6869,52.642918,1161.3314L52.642918,1161.3314C52.798023,1161.3275,52.918415,1161.3236,53.062275,1161.3177L53.06603,1161.3175C67.52158,1160.7242,81.295296,1147.966,97.16822,1132.8073L97.73503,1140.776C80.566605,1128.5099,65.4696,1117.9994,50.91858,1118.3549L50.91858,1118.3549C50.784393,1118.358,50.572464,1118.3651,50.44815,1118.3702L50.445206,1118.3702C35.672066,1118.9767,20.29267,1130.9363,2.9264677,1144.7621L2.728905,1136.4996 M-3.3350825,1144.9117C-4.6516647,1143.9629,-5.4479294,1142.4521,-5.486725,1140.8296C-5.525521,1139.2072,-4.802407,1137.6598,-3.5326543,1136.649L-3.5326543,1136.649C12.794851,1123.6501,31.108547,1108.7856,50.019726,1108.009L50.016796,1108.009C50.223995,1108.0005,50.467937,1107.9929,50.66531,1107.988L50.66531,1107.988C69.42595,1107.5298,87.62939,1120.8107,103.76356,1132.3378C105.02061,1133.2361,105.811714,1134.6477,105.92133,1136.189C106.030975,1137.7301,105.44763,1139.2396,104.33038,1140.3065L104.33038,1140.3065C89.57571,1154.3975,72.71887,1170.8896,53.49134,1171.6788L53.495094,1171.6788C53.26902,1171.6881,53.11161,1171.6932,52.896187,1171.6986L52.896187,1171.6986C34.046272,1172.159,14.243037,1157.5826,-3.3350825,1144.9117 Z"/>
</g>
</g>
<defs>
<linearGradient id="grad0" gradientUnits="userSpaceOnUse" x1="26.202507" y1="1139.437" x2="74.30047" y2="1139.437" >
<stop offset="0.0%" style="stop-color:rgb(253,192,5); stop-opacity:1.0" />
<stop offset="100.0%" style="stop-color:rgb(255,45,1); stop-opacity:1.0" />
</linearGradient>
<linearGradient id="grad3" gradientUnits="userSpaceOnUse" x1="-5.4774017" y1="1141.2424" x2="106.05" y2="1138.518" >
<stop offset="0.0%" style="stop-color:rgb(253,192,5); stop-opacity:1.0" />
<stop offset="100.0%" style="stop-color:rgb(255,45,1); stop-opacity:1.0" />
</linearGradient>
<linearGradient id="grad2" gradientUnits="userSpaceOnUse" x1="173.37332" y1="1215.2366" x2="-72.45534" y2="1215.2366" >
<stop offset="0.0%" style="stop-color:rgb(253,192,5); stop-opacity:1.0" />
<stop offset="100.0%" style="stop-color:rgb(255,45,1); stop-opacity:1.0" />
</linearGradient>
<linearGradient id="grad1" gradientUnits="userSpaceOnUse" x1="24.747715" y1="1139.1929" x2="75.70562" y2="1139.1929" >
<stop offset="0.0%" style="stop-color:rgb(253,192,5); stop-opacity:1.0" />
<stop offset="100.0%" style="stop-color:rgb(255,45,1); stop-opacity:1.0" />
</linearGradient>
</defs>
</svg>