<?xml version="1.0" encoding="utf-8"?>
<svg xmlns="http://www.w3.org/2000/svg" xmlns:xlink="http://www.w3.org/1999/xlink" version= "1.1" width="285px" height="295px" viewBox="-93 937 285 295">
<g id="layer1">
<g style="fill:url(#grad0); fill-opacity:1.0; stroke-linejoin: miter">
<path d="M61.20408,1138.7708L61.19249,1140.2356Q60.756474,1144.6864,57.52913,1147.5308Q54.278244,1150.3743,49.631004,1150.1488Q45.182693,1149.7123,42.339737,1146.4829Q41.428253,1145.4386,40.803658,1144.1804L40.26434,1142.8809Q39.803528,1141.5338,39.71098,1140.0452Q39.555305,1135.4691,42.407764,1132.2552Q45.260223,1129.0414,49.819984,1128.6553Q54.393433,1128.4998,57.605675,1131.354Q60.817924,1134.2083,61.20408,1138.7708"/>
</g>
<g style="fill:url(#grad1); fill-opacity:1.0; stroke-linejoin: miter">
<path d="M60.95008,1172.194L60.950085,1172.1941L60.950077,1172.1938L60.95008,1172.194L60.950073,1172.1938L60.95009,1172.1941L60.95008,1172.194L60.950085,1172.1941L60.950077,1172.1938L60.95008,1172.194L60.950073,1172.1938L60.95009,1172.1941L60.95008,1172.194L60.950085,1172.1941L60.950077,1172.1938L60.95008,1172.194L60.950073,1172.1938L60.95009,1172.1941L60.95008,1172.194L60.950085,1172.1941L60.950077,1172.1938L60.95008,1172.194L60.950073,1172.1938L60.95009,1172.1941L60.95008,1172.194"/>
</g>
<g style="fill:url(#grad1); fill-opacity:1.0; stroke-linejoin: miter">
<path d="M28.547926,1137.1187L28.547926,1137.1187C36.977486,1143.5135,44.41317,1149.0146,51.063488,1149.0146L51.063488,1149.0146C51.134354,1149.0146,51.189377,1149.0142,51.25514,1149.0131L51.25685,1149.0131C57.864407,1148.9033,64.29631,1143.2311,71.71356,1136.4861L71.88351,1140.1312C64.1806,1134.3386,57.404003,1129.3707,50.75551,1129.3707L50.75551,1129.3707C50.6942,1129.3707,50.59735,1129.3715,50.540524,1129.3724L50.53918,1129.3724C43.786457,1129.4846,36.63025,1134.7742,28.545963,1140.8939L28.547926,1137.1187 M25.685038,1140.8923C25.094427,1140.4443,24.747677,1139.7456,24.748062,1139.0043C24.748447,1138.263,25.09591,1137.5645,25.687,1137.1171L25.687,1137.1171C33.287754,1131.3634,41.816277,1124.78,50.460476,1124.6364L50.459133,1124.6364C50.55385,1124.6348,50.665325,1124.6339,50.75551,1124.6339L50.75551,1124.6339C59.327408,1124.6339,67.49161,1130.9016,74.73048,1136.3453C75.29448,1136.7695,75.63998,1137.423,75.672844,1138.1279C75.70571,1138.8329,75.4225,1139.5157,74.90042,1139.9905L74.90042,1139.9905C68.005714,1146.2603,60.12428,1153.6033,51.33548,1153.7491L51.337193,1153.7491C51.233856,1153.751,51.161922,1153.7515,51.063488,1153.7515L51.063488,1153.7515C42.450783,1153.7515,33.570503,1146.8744,25.685038,1140.8923 Z"/>
</g>
<g style="fill:rgb(255,255,255); fill-opacity:1.0; stroke-linejoin: miter">
<path d="M60.95008,1172.194L60.950085,1172.1941L60.950077,1172.1938L60.95008,1172.194L60.950073,1172.1938L60.95009,1172.1941L60.95008,1172.194L60.950085,1172.1941L60.950077,1172.1938L60.95008,1172.194L60.950073,1172.1938L60.95009,1172.1941L60.95008,1172.194L60.950085,1172.1941L60.950077,1172.1938L60.95008,1172.194L60.950073,1172.1938L60.95009,1172.1941L60.95008,1172.194L60.950085,1172.1941L60.950077,1172.1938L60.95008,1172.194L60.950073,1172.1938L60.95009,1172.1941L60.95008,1172.194"/>
</g>
<g style="fill:rgb(255,254,254); fill-opacity:1.0; stroke-linejoin: miter">
</g>
<g style="fill:rgb(253,139,5); fill-opacity:1.0; stroke-linejoin: miter">
</g>
<g style="fill:rgb(255,255,255); fill-opacity:1.0; stroke-linejoin: miter">
<path d="M49.698933,1073.4518L96.03345,1178.5703Q50.17538,1178.8541,4.317318,1179.1382L49.698933,1073.452L49.698933,1073.4518 Z M47.116966,937.6377L-92.63327,1231.6543L-92.63327,1231.655L49.605743,1231.6509L191.84462,1231.6467Q121.97217,1084.6548,52.09963,937.6626L47.116966,937.6377 Z"/>
</g>
<g style="fill:url(#grad2); fill-opacity:1.0; stroke-linejoin: miter">
<path d="M137.23111,1231.6177L120.36567,1213.1941L103.500244,1194.7705Q50.665672,1195.8608,-2.1689072,1196.9513Q-8.623687,1214.2913,-15.078468,1231.6313L137.23111,1231.6177"/>
</g>
<g style="fill:rgb(255,255,255); fill-opacity:1.0; stroke-linejoin: miter">
<path d="M118.34144,1231.6509L155.08423,1231.6438L191.82704,1231.6367Q121.95228,1084.6338,52.07753,937.63074L47.117325,937.6381Q32.117012,969.2046,17.1167,1000.7711L118.34144,1231.6509"/>
</g>
<g style="fill:rgb(253,139,5); fill-opacity:1.0; stroke-linejoin: miter">
</g>
<g style="fill:rgb(149,150,152); fill-opacity:1.0; stroke-linejoin: miter">
<path d="M724.32776,-148.37793L731.30206,-150.47018L738.27637,-152.56244L724.32776,-148.37793"/>
</g>
<g style="fill:rgb(255,255,255); fill-opacity:1.0; stroke-linejoin: miter">
<path d="M58.56779,1138.6908L58.56779,1138.6908C58.963943,1143.1699,55.654007,1147.1221,51.17485,1147.5181L51.1749,1147.5181C46.69577,1147.9142,42.743614,1144.6044,42.34746,1140.1252L42.34746,1140.1252C41.951336,1135.6461,45.261204,1131.6937,49.740356,1131.2976L49.7404,1131.2976C54.21949,1130.9016,58.171665,1134.2117,58.56779,1138.6908L58.56779,1138.6908 M55.767353,1138.9384L55.767353,1138.9384C55.508,1136.0057,52.920475,1133.8389,49.987995,1134.0981L49.988037,1134.0981C47.055584,1134.3575,44.888523,1136.9448,45.1479,1139.8777L45.1479,1139.8777C45.40725,1142.81,47.994728,1144.9769,50.92721,1144.7175L50.92726,1144.7175C53.85965,1144.4583,56.026752,1141.8713,55.767353,1138.9384 Z"/>
</g>
<g style="fill:rgb(255,255,255); fill-opacity:1.0; stroke-linejoin: miter">
<path d="M14.912552,1073.2867L14.912552,1073.2867L14.912552,1073.2867L14.912552,1073.2867L14.912552,1073.2867L14.912552,1073.2867L14.912552,1073.2867L14.912552,1073.2867L14.912552,1073.2867L14.912552,1073.2867 M14.912552,1077.0328L14.912552,1077.0328L14.912552,1077.0328L14.912552,1077.0328L14.912552,1077.0328L14.912552,1077.0328L14.912552,1077.0328L14.912552,1077.0328L14.912552,1077.0328 Z"/>
</g>
<g style="fill:url(#grad1); fill-opacity:1.0; stroke-linejoin: miter">
<path d="M28.547926,1137.1187L28.547926,1137.1187C36.977486,1143.5135,44.41317,1149.0146,51.063488,1149.0146L51.063488,1149.0146C51.134354,1149.0146,51.189377,1149.0142,51.25514,1149.0131L51.25685,1149.0131C57.864407,1148.9033,64.29631,1143.2311,71.71356,1136.4861L71.88351,1140.1312C64.1806,1134.3386,57.404003,1129.3707,50.75551,1129.3707L50.75551,1129.3707C50.6942,1129.3707,50.59735,1129.3715,50.540524,1129.3724L50.53918,1129.3724C43.786457,1129.4846,36.63025,1134.7742,28.545963,1140.8939L28.547926,1137.1187 M25.685038,1140.8923C25.094427,1140.4443,24.747677,1139.7456,24.748062,1139.0043C24.748447,1138.263,25.09591,1137.5645,25.687,1137.1171L25.687,1137.1171C33.287754,1131.3634,41.816277,1124.78,50.460476,1124.6364L50.459133,1124.6364C50.55385,1124.6348,50.665325,1124.6339,50.75551,1124.6339L50.75551,1124.6339C59.327408,1124.6339,67.49161,1130.9016,74.73048,1136.3453C75.29448,1136.7695,75.63998,1137.423,75.672844,1138.1279C75.70571,1138.8329,75.4225,1139.5157,74.90042,1139.9905L74.90042,1139.9905C68.005714,1146.2603,60.12428,1153.6033,51.33548,1153.7491L51.337193,1153.7491C51.233856,1153.751,51.161922,1153.7515,51.063488,1153.7515L51.063488,1153.7515C42.450783,1153.7515,33.570503,1146.8744,25.685038,1140.8923 Z"/>
</g>
<g style="fill:rgb(0,0,0); fill-opacity:1.0; stroke-linejoin: miter">
<path d="M52.24327,1139.2869L52.243404,1139.5302Q52.177185,1140.2698,51.644676,1140.7465Q51.108253,1141.2233,50.335392,1141.1925Q49.5953,1141.1263,49.118153,1140.5942Q48.96516,1140.4222,48.85956,1140.2142L48.768074,1139.9991Q48.689575,1139.7762,48.672096,1139.5292Q48.639774,1138.7695,49.10944,1138.2319Q49.579105,1137.6943,50.336575,1137.6237Q51.09663,1137.5913,51.63464,1138.0605Q52.17265,1138.5299,52.24327,1139.2869"/>
</g>
<g style="fill:url(#grad3); fill-opacity:1.0; stroke-linejoin: miter">
<path d="M2.72925,1136.499L2.72925,1136.499C21.212193,1149.8228,37.57386,1161.3387,52.006046,1161.3387L52.006046,1161.3387C52.36212,1161.3387,52.712788,1161.3317,53.066494,1161.3171L53.06595,1161.3171C67.52239,1160.7235,81.29396,1147.9663,97.167915,1132.8068L97.734955,1140.7764L97.6109,1140.6877L97.61076,1140.6876C80.7941,1128.6731,65.94305,1118.3467,51.62499,1118.3467L51.62499,1118.3467C51.230602,1118.3467,50.837795,1118.3546,50.44503,1118.3707L50.44521,1118.3707C35.671936,1118.9773,20.293379,1130.9363,2.9267182,1144.7625L2.72925,1136.499 M-3.3354359,1144.9121C-4.652094,1143.963,-5.448391,1142.4521,-5.4871664,1140.8295C-5.525942,1139.2068,-4.8027244,1137.6597,-3.5329041,1136.6487L-3.5329041,1136.6487C12.794369,1123.65,31.108446,1108.7849,50.019733,1108.0084L50.019913,1108.0084C50.5555,1107.9865,51.091045,1107.9756,51.62499,1107.9756L51.62499,1107.9756C69.97883,1107.9756,87.79308,1120.9275,103.63971,1132.2489L103.63957,1132.2488L103.763626,1132.3374C105.020966,1133.2357,105.81215,1134.6478,105.921776,1136.189C106.0314,1137.7301,105.44805,1139.2399,104.330666,1140.307L104.330666,1140.307C89.57546,1154.3981,72.71968,1170.8899,53.491425,1171.6794L53.49088,1171.6794C52.9941,1171.6998,52.50427,1171.7098,52.006046,1171.7098L52.006046,1171.7098C33.452553,1171.7098,13.998262,1157.4073,-3.3354359,1144.9121 Z"/>
</g>
<g style="fill:rgb(0,0,0); fill-opacity:1.0; stroke-linejoin: miter">
<path d="M405.93704,1429.6709Q405.6995,1429.8129,495.4664,1434.4509L524.27246,1434.8276Q543.0503,1436.7079,558.7857,1436.8717Q566.6126,1439.214,578.65564,1439.5399L603.79254,1439.6879Q606.5437,1439.8422,608.37366,1440.1202Q620.43164,1441.8434,627.35583,1444.2332L690.07043,1469.1893 Z"/>
</g>
</g>
<defs>
<linearGradient id="grad0" gradientUnits="userSpaceOnUse" x1="26.202507" y1="1139.437" x2="74.30047" y2="1139.437" >
<stop offset="0.0%" style="stop-color:rgb(253,192,5); stop-opacity:1.0" />
<stop offset="100.0%" style="stop-color:rgb(255,45,1); stop-opacity:1.0" />
</linearGradient>
<linearGradient id="grad3" gradientUnits="userSpaceOnUse" x1="-5.4774017" y1="1141.2424" x2="106.05" y2="1138.518" >
<stop offset="0.0%" style="stop-color:rgb(253,192,5); stop-opacity:1.0" />
<stop offset="100.0%" style="stop-color:rgb(255,45,1); stop-opacity:1.0" />
</linearGradient>
<linearGradient id="grad2" gradientUnits="userSpaceOnUse" x1="173.37332" y1="1215.2366" x2="-72.45534" y2="1215.2366" >
<stop offset="0.0%" style="stop-color:rgb(253,192,5); stop-opacity:1.0" />
<stop offset="100.0%" style="stop-color:rgb(255,45,1); stop-opacity:1.0" />
</linearGradient>
<linearGradient id="grad1" gradientUnits="userSpaceOnUse" x1="24.747715" y1="1139.1929" x2="75.70562" y2="1139.1929" >
<stop offset="0.0%" style="stop-color:rgb(253,192,5); stop-opacity:1.0" />
<stop offset="100.0%" style="stop-color:rgb(255,45,1); stop-opacity:1.0" />
</linearGradient>
</defs>
</svg>