<?xml version="1.0" encoding="utf-8"?>
<svg xmlns="http://www.w3.org/2000/svg" xmlns:xlink="http://www.w3.org/1999/xlink" version= "1.1" width="118px" height="85px" viewBox="-7 1065 118 85">
<g id="layer1">
<g style="fill:url(#grad0); fill-opacity:1.0; stroke-linejoin: miter">
<path d="M60.950077,1172.1938L60.95008,1172.194L60.950073,1172.1937L60.950077,1172.1938L60.95007,1172.1937L60.950085,1172.194L60.950077,1172.1938L60.95008,1172.194L60.950073,1172.1937L60.950077,1172.1938L60.95007,1172.1937L60.950085,1172.194L60.950077,1172.1938L60.95008,1172.194L60.950073,1172.1937L60.950077,1172.1938L60.95007,1172.1937L60.950085,1172.194L60.950077,1172.1938L60.95008,1172.194L60.950073,1172.1937L60.950077,1172.1938L60.95007,1172.1937L60.950085,1172.194L60.950077,1172.1938"/>
</g>
<g style="fill:rgb(255,255,255); fill-opacity:1.0; stroke-linejoin: miter">
<path d="M60.950077,1172.1938L60.95008,1172.194L60.950073,1172.1937L60.950077,1172.1938L60.95007,1172.1937L60.950085,1172.194L60.950077,1172.1938L60.95008,1172.194L60.950073,1172.1937L60.950077,1172.1938L60.95007,1172.1937L60.950085,1172.194L60.950077,1172.1938L60.95008,1172.194L60.950073,1172.1937L60.950077,1172.1938L60.95007,1172.1937L60.950085,1172.194L60.950077,1172.1938L60.95008,1172.194L60.950073,1172.1937L60.950077,1172.1938L60.95007,1172.1937L60.950085,1172.194L60.950077,1172.1938"/>
</g>
<g style="fill:rgb(255,254,254); fill-opacity:1.0; stroke-linejoin: miter">
</g>
<g style="fill:rgb(253,139,5); fill-opacity:1.0; stroke-linejoin: miter">
</g>
<g style="fill:rgb(253,139,5); fill-opacity:1.0; stroke-linejoin: miter">
</g>
<g style="fill:rgb(149,150,152); fill-opacity:1.0; stroke-linejoin: miter">
<path d="M724.3277,-148.37798L731.302,-150.47023L738.27625,-152.56248L724.3277,-148.37798"/>
</g>
<g style="fill:rgb(255,255,255); fill-opacity:1.0; stroke-linejoin: miter">
<path d="M14.912544,1073.287L14.912544,1073.287L14.912544,1073.287L14.912544,1073.287L14.912544,1073.287L14.912544,1073.287L14.912544,1073.287L14.912544,1073.287L14.912544,1073.287L14.912544,1073.287 M14.912544,1077.0326L14.912544,1077.0326L14.912544,1077.0326L14.912544,1077.0326L14.912544,1077.0326L14.912544,1077.0326L14.912544,1077.0326L14.912544,1077.0326L14.912544,1077.0326 Z"/>
</g>
<g style="fill:rgb(0,0,0); fill-opacity:1.0; stroke-linejoin: miter">
<path d="M405.93713,1429.671Q405.6996,1429.8131,495.4665,1434.4509L524.27246,1434.8279Q543.05023,1436.7079,558.78564,1436.8716Q566.6126,1439.2139,578.65564,1439.54L603.7926,1439.688Q606.5437,1439.8422,608.3737,1440.1204Q620.4315,1441.8433,627.3558,1444.233L690.07043,1469.1895 Z"/>
</g>
<g style="fill:rgb(255,255,255); fill-opacity:1.0; stroke-linejoin: miter">
</g>
<g style="fill:url(#grad1); fill-opacity:1.0; stroke-linejoin: miter">
<path d="M56.860764,1113.1466L56.861076,1113.7001Q56.71041,1115.3833,55.498695,1116.4685Q54.278076,1117.5536,52.519398,1117.4835Q50.835293,1117.333,49.749504,1116.1221Q48.66392,1114.9022,48.73414,1113.1447Q48.884792,1111.4615,50.096508,1110.3763Q51.317135,1109.2913,53.07581,1109.3613Q54.75991,1109.5118,55.845707,1110.7228Q56.193855,1111.1144,56.434162,1111.5876L56.642345,1112.077Q56.82098,1112.5845,56.860764,1113.1466"/>
</g>
<g style="fill:rgb(255,255,255); fill-opacity:1.0; stroke-linejoin: miter">
</g>
<g>
<g>
<g style="fill:url(#grad2); fill-opacity:1.0; stroke-linejoin: miter">
<path d="M77.193184,1114.8383C77.994545,1128.3518,67.69561,1139.956,54.18988,1140.757C40.684143,1141.5579,29.08596,1131.2521,28.2846,1117.7385C27.483223,1104.2247,37.782158,1092.6205,51.287895,1091.8196C64.79363,1091.0187,76.39181,1101.3245,77.193184,1114.8383 Z"/>
</g>
<g>
<g style="fill:url(#grad2); fill-opacity:1.0; stroke-linejoin: miter">
<path d="M2.881894,1111.0789L2.881894,1111.0789C22.063944,1125.6312,38.98412,1138.1492,54.11766,1138.1492L54.11766,1138.1492C54.255188,1138.1492,54.42055,1138.1478,54.557755,1138.1455L54.55777,1138.1455C69.594864,1137.8959,84.22931,1124.9886,101.10874,1109.6395L101.49543,1117.934C83.967026,1104.7527,68.545715,1093.4476,53.41654,1093.4476L53.41654,1093.4476C53.267536,1093.4476,53.07248,1093.4492,52.923374,1093.4517L52.92462,1093.4517C37.558094,1093.7068,21.273907,1105.7434,2.8773293,1119.6692L2.881894,1111.0789 M-3.632573,1119.6658C-4.976454,1118.6462,-5.7654376,1117.0564,-5.764541,1115.3695C-5.7636447,1113.6826,-4.972953,1112.0935,-3.6280084,1111.0754L-3.6280084,1111.0754C13.667929,1097.9829,33.075264,1083.0015,52.745667,1082.6748L52.746914,1082.6748C52.97554,1082.671,53.187943,1082.6693,53.41654,1082.6693L53.41654,1082.6693C72.922455,1082.6693,91.50085,1096.9321,107.97347,1109.3195C109.25686,1110.2845,110.04302,1111.7717,110.117805,1113.3757C110.19259,1114.9797,109.54819,1116.5336,108.36016,1117.6139L108.36016,1117.6139C92.67059,1131.8811,74.736305,1148.5902,54.736725,1148.9224L54.73674,1148.9224C54.521137,1148.9259,54.33344,1148.9275,54.11766,1148.9275L54.11766,1148.9275C34.518898,1148.9275,14.311581,1133.279,-3.632573,1119.6658 Z"/>
</g>
<g style="fill:url(#grad2); fill-opacity:1.0; stroke-linejoin: miter">
<path d="M33.119545,1092.6326L33.119545,1092.6326L27.499123,1078.9692C26.801735,1077.2739,27.61075,1075.3342,29.306107,1074.6368C31.001465,1073.9395,32.94117,1074.7485,33.638557,1076.4438L33.638557,1076.4438L39.25898,1090.1072C39.956367,1091.8025,39.14735,1093.7422,37.451992,1094.4396C35.756634,1095.137,33.816933,1094.3279,33.119545,1092.6326 Z"/>
</g>
<g style="fill:url(#grad2); fill-opacity:1.0; stroke-linejoin: miter">
<path d="M49.616367,1089.5901L49.616367,1089.5901L49.55557,1071.026L56.194103,1071.0043L56.2549,1089.5684L49.616367,1089.5901 M56.2549,1089.5684C56.260906,1091.4015,54.779686,1092.8925,52.946507,1092.8984C51.113327,1092.9044,49.62237,1091.4232,49.616367,1089.5901L49.616367,1089.5901L49.55557,1071.026C49.549564,1069.1929,51.030785,1067.7019,52.863964,1067.6959C54.697144,1067.69,56.1881,1069.1711,56.194103,1071.0043L56.194103,1071.0043L56.2549,1089.5684 Z"/>
</g>
<g style="fill:url(#grad2); fill-opacity:1.0; stroke-linejoin: miter">
<path d="M64.210655,1088.6399L64.210655,1088.6399L70.93788,1075.5524C71.77594,1073.922,73.77703,1073.2797,75.40744,1074.1177C77.03785,1074.9557,77.680176,1076.9569,76.84212,1078.5873L76.84212,1078.5873L70.11489,1091.6748C69.27683,1093.3052,67.27574,1093.9475,65.64533,1093.1095C64.01492,1092.2715,63.372597,1090.2703,64.210655,1088.6399 Z"/>
</g>
</g>
</g>
<g style="fill:rgb(255,255,255); fill-opacity:1.0; stroke-linejoin: miter">
<path d="M70.76161,1114.3499C71.632614,1124.0964,64.43747,1132.7039,54.690826,1133.5748C44.944183,1134.4458,36.336884,1127.2506,35.465897,1117.504C34.594894,1107.7574,41.79004,1099.1501,51.536682,1098.2792C61.283325,1097.4082,69.890625,1104.6033,70.76161,1114.3499 Z"/>
</g>
<g style="fill:url(#grad3); fill-opacity:1.0; stroke-linejoin: miter">
<path d="M64.26152,1115.0056C64.808685,1121.1348,60.28273,1126.547,54.152542,1127.0944C48.02234,1127.6416,42.60927,1123.1166,42.06212,1116.9874C41.514954,1110.8584,46.040894,1105.4462,52.171097,1104.8989C58.301285,1104.3516,63.714355,1108.8766,64.26152,1115.0056 Z"/>
</g>
</g>
<g style="fill:rgb(255,255,255); fill-opacity:1.0; stroke-linejoin: miter">
<path d="M57.471207,1014.26996L57.471207,1014.26996L57.471207,1014.26996L57.471207,1014.26996L57.471207,1014.26996L57.471207,1014.26996L57.471207,1014.26996L57.471207,1014.26996L57.471207,1014.26996L57.471207,1014.26996 M59.918594,1033.1375L59.918594,1033.1375L59.918594,1033.1375L59.918594,1033.1375L59.918594,1033.1375L59.918594,1033.1375L59.918594,1033.1375L59.918594,1033.1375L59.918594,1033.1375 Z"/>
</g>
<g style="fill:rgb(255,255,255); fill-opacity:1.0; stroke-linejoin: miter">
<path d="M-57.593807,925.4821L-57.593807,925.4821L-57.593807,925.4821L-57.593807,925.4821L-57.593807,925.4821L-57.593807,925.4821L-57.593807,925.4821L-57.593807,925.4821L-57.593807,925.4821L-57.593807,925.4821 M-55.95364,944.43695L-55.95364,944.43695L-55.95364,944.43695L-55.95364,944.43695L-55.95364,944.43695L-55.95364,944.43695L-55.95364,944.43695L-55.95364,944.43695L-55.95364,944.43695 Z"/>
</g>
</g>
<defs>
<linearGradient id="grad3" gradientUnits="userSpaceOnUse" x1="41.964725" y1="1115.964" x2="64.29371" y2="1115.964" >
<stop offset="0.0%" style="stop-color:rgb(253,188,5); stop-opacity:1.0" />
<stop offset="100.0%" style="stop-color:rgb(255,16,2); stop-opacity:1.0" />
</linearGradient>
<linearGradient id="grad1" gradientUnits="userSpaceOnUse" x1="-272.816" y1="988.8081" x2="374.53354" y2="988.8081" >
<stop offset="0.0%" style="stop-color:rgb(253,188,5); stop-opacity:1.0" />
<stop offset="100.0%" style="stop-color:rgb(255,16,2); stop-opacity:1.0" />
</linearGradient>
<linearGradient id="grad2" gradientUnits="userSpaceOnUse" x1="-5.765423" y1="1108.3088" x2="110.1926" y2="1108.3088" >
<stop offset="0.0%" style="stop-color:rgb(253,188,5); stop-opacity:1.0" />
<stop offset="100.0%" style="stop-color:rgb(255,16,2); stop-opacity:1.0" />
</linearGradient>
<linearGradient id="grad0" gradientUnits="userSpaceOnUse" x1="24.747711" y1="1139.1927" x2="75.70562" y2="1139.1929" >
<stop offset="0.0%" style="stop-color:rgb(253,192,5); stop-opacity:1.0" />
<stop offset="100.0%" style="stop-color:rgb(255,45,1); stop-opacity:1.0" />
</linearGradient>
</defs>
</svg>