<?xml version="1.0" encoding="utf-8"?>
<svg xmlns="http://www.w3.org/2000/svg" xmlns:xlink="http://www.w3.org/1999/xlink" version= "1.1" width="35px" height="11px" viewBox="522 1059 35 11">
<g id="layer1">
<g>
<g style="fill:rgb(255,255,255); fill-opacity:1.0; stroke-linejoin: miter">
<path d="M550.1851,1064.4543Q550.9097,1064.4543,550.97394,1065.1422L549.1578,1065.1422Q549.4788,1064.4543,550.1851,1064.4543 Z M527.63904,1064.6469Q528.0151,1064.6469,528.2536,1064.8945Q528.49207,1065.133,528.49207,1065.5092Q528.49207,1065.8394,528.3178,1066.1237Q528.1527,1066.4081,527.86835,1066.5823Q527.584,1066.7566,527.2721,1066.7566Q526.89606,1066.7566,526.65753,1066.5089Q526.41907,1066.2705,526.41907,1065.8944Q526.41907,1065.5642,526.5933,1065.2798Q526.7585,1064.9955,527.0428,1064.8212Q527.32715,1064.6469,527.63904,1064.6469 Z M539.60004,1064.6469Q539.9761,1064.6469,540.2146,1064.8945Q540.45306,1065.133,540.45306,1065.5092Q540.45306,1065.8394,540.2788,1066.1237Q540.11365,1066.4081,539.82935,1066.5823Q539.545,1066.7566,539.2331,1066.7566Q538.85706,1066.7566,538.6185,1066.5089Q538.38007,1066.2705,538.38007,1065.8944Q538.38007,1065.5642,538.5543,1065.2798Q538.7194,1064.9955,539.0038,1064.8212Q539.28815,1064.6469,539.60004,1064.6469 Z M534.66516,1062.9591Q534.27075,1062.9591,533.8672,1063.1151Q533.4728,1063.271,533.17926,1063.5829L533.2618,1063.106L531.464,1063.106L530.5467,1068.2976L532.34454,1068.2976L532.8674,1065.3531Q532.9316,1065.0046,533.17004,1064.812Q533.39935,1064.6285,533.7663,1064.6285Q534.0506,1064.6285,534.21576,1064.7661Q534.37164,1064.8945,534.37164,1065.133Q534.37164,1065.2064,534.3625,1065.2523L533.8213,1068.2976L535.61914,1068.2976L536.2245,1064.8671Q536.2612,1064.6285,536.2612,1064.5093Q536.2612,1064.1699,536.14197,1063.8765Q536.0227,1063.5829,535.8026,1063.372Q535.57324,1063.1517,535.30725,1063.0509Q535.04126,1062.9591,534.66516,1062.9591 Z M546.72705,1062.9958Q546.2868,1062.9958,545.8832,1063.216Q545.6172,1063.3444,545.39703,1063.5646Q545.1861,1063.7755,545.0577,1064.0507L545.2228,1063.106L543.425,1063.106L542.5077,1068.2976L544.30554,1068.2976L544.6816,1066.1604Q544.7458,1065.8026,544.9384,1065.5275Q545.1219,1065.2523,545.3879,1065.078Q545.7456,1064.8579,546.14,1064.8579Q546.5344,1064.8579,546.77295,1064.9955L547.4517,1063.1702Q547.16736,1062.9958,546.72705,1062.9958 Z M527.53815,1062.9591Q526.6943,1062.9591,526.0155,1063.427Q525.33673,1063.8948,524.9515,1064.6744Q524.5754,1065.4541,524.5754,1066.3439Q524.5754,1067.3069,525.1074,1067.8756Q525.6394,1068.4443,526.56586,1068.4443Q526.9878,1068.4443,527.39136,1068.2885Q527.78564,1068.1326,528.0975,1067.83L528.0976,1067.83L528.0151,1068.2976L529.8129,1068.2976L530.73016,1063.106L528.9324,1063.106L528.8498,1063.5737Q528.648,1063.271,528.29944,1063.1151Q527.9601,1062.9591,527.53815,1062.9591 Z M541.2694,1060.9596L540.8108,1063.5737Q540.609,1063.271,540.26044,1063.1151Q539.921,1062.9591,539.49915,1062.9591Q538.6552,1062.9591,537.9765,1063.427Q537.2977,1063.8948,536.9125,1064.6744Q536.5364,1065.4541,536.5364,1066.3439Q536.5364,1067.3069,537.06836,1067.8756Q537.6004,1068.4443,538.5268,1068.4443Q538.9487,1068.4443,539.35236,1068.2885Q539.7466,1068.1326,540.05835,1067.8301L540.0586,1067.8301L539.9761,1068.2976L541.7739,1068.2976L543.06726,1060.9596 Z M550.4511,1062.9591Q549.5339,1062.9591,548.7726,1063.3994Q548.0112,1063.8397,547.5709,1064.6011Q547.13983,1065.3624,547.13983,1066.2705Q547.13983,1066.9218,547.4242,1067.417Q547.70856,1067.9032,548.24054,1068.1783Q548.76337,1068.4443,549.4788,1068.4443Q550.3594,1068.4443,551.14825,1067.9583Q551.9371,1067.4812,552.4232,1066.6558L550.4603,1066.6558Q550.1943,1066.9125,549.754,1066.9125Q549.0202,1066.9125,548.96515,1066.2429L552.5975,1066.2429Q552.6892,1065.9952,552.74426,1065.6926Q552.7993,1065.3899,552.7993,1065.133Q552.7993,1064.4818,552.51495,1063.9865Q552.2306,1063.5004,551.6986,1063.2252Q551.16656,1062.9592,550.4511,1062.9591 Z"/>
</g>
</g>
<g>
<g style="fill:rgb(254,193,7); fill-opacity:1.0; stroke-linejoin: miter">
<path d="M554.0095,1066.3267Q553.71497,1066.339,553.4439,1066.4999Q553.15955,1066.665,552.9761,1066.9586Q552.8018,1067.2429,552.8018,1067.5823Q552.8018,1067.9584,553.0495,1068.1969Q553.28796,1068.4353,553.6824,1068.4353Q553.7069,1068.4353,553.7313,1068.4343Q554.0259,1068.422,554.29694,1068.2611Q554.59045,1068.096,554.7739,1067.8116Q554.9482,1067.5272,554.9482,1067.197Q554.9482,1066.8209,554.69135,1066.5734Q554.4437,1066.3257,554.0585,1066.3257Q554.03394,1066.3257,554.0095,1066.3267 Z"/>
</g>
</g>
</g>
</svg>