<?xml version="1.0" encoding="utf-8"?>
<svg xmlns="http://www.w3.org/2000/svg" xmlns:xlink="http://www.w3.org/1999/xlink" version= "1.1" width="1280px" height="720px" viewBox="-100 705 1280 720">
<g id="layer1">
<g style="fill:rgb(106,124,98); fill-opacity:1.0; stroke-linejoin: miter">
<path d="M333.44562,570.0416L315.91162,581.0711L298.37762,592.1006Q294.26993,1063.8219,290.1622,1535.5432Q549.3613,1531.5837,808.56055,1527.6245Q821.004,1087.012,833.4475,646.3994L333.44562,570.0416"/>
</g>
<g style="fill:rgb(210,0,34); fill-opacity:1.0; stroke-linejoin: miter">
<path d="M310.06488,620.9199L310.17728,1047.1335L310.28967,1473.3472Q93.833855,1470.2913,-122.62197,1467.2356Q-111.94826,1061.5641,-101.274536,655.8927L310.06488,620.9199"/>
</g>
<g style="fill:rgb(221,159,0); fill-opacity:1.0; stroke-linejoin: miter">
<path d="M767.6478,581.5123L766.95105,1081.8811L766.2543,1582.2499Q993.2195,1590.1672,1220.1847,1598.0845Q1202.9022,1111.7518,1185.6196,625.4192L767.6478,581.5123"/>
</g>
<g style="fill:rgb(210,0,34); fill-opacity:1.0; stroke-linejoin: miter">
<path d="M767.1982,833.1931L767.36755,1063.5474L767.5369,1293.9016Q973.9513,1294.4071,1180.3657,1294.9126Q1180.4872,1064.4794,1180.6086,834.04614L767.1982,833.1931"/>
</g>
<g style="fill:rgb(221,159,0); fill-opacity:1.0; stroke-linejoin: miter">
<path d="M767.6314,833.1516L767.6314,833.1526L310.1096,835.5862L310.21475,1294.8043L766.8374,1293.9199 Z"/>
</g>
<g style="fill:rgb(106,124,98); fill-opacity:1.0; stroke-linejoin: miter">
<path d="M310.125,835.57983L-102.42157,837.2269L-115.93884,1295.347L310.20837,1294.8522 Z"/>
</g>
</g>
</svg>