<?xml version="1.0" encoding="utf-8"?>
<svg xmlns="http://www.w3.org/2000/svg" xmlns:xlink="http://www.w3.org/1999/xlink" version= "1.1" width="1280px" height="720px" viewBox="-100 705 1280 720">
<rect x="-100" y="705" width="1280" height="720" fill="rgb(255,255,255)"/>
<g id="layer1">
<g style="fill:rgb(1,28,48); fill-opacity:1.0; stroke-linejoin: miter">
<path d="M-198.03653,585.95056L21.780853,640.4203L241.59824,694.88995Q197.45862,787.32294,153.31897,879.7559Q25.80539,820.501,-101.70819,761.2461L-198.03653,585.95056"/>
</g>
<g style="fill:rgb(1,28,48); fill-opacity:1.0; stroke-linejoin: miter">
<path d="M-102.629364,805.01495L-102.629395,805.0154Q18.203941,861.1472,139.03732,917.27826Q63.448235,1077.001,-12.140854,1236.7236Q-56.723564,1216.2334,-101.306274,1195.7432L-102.629364,805.01495"/>
</g>
<g style="fill:rgb(1,28,48); fill-opacity:1.0; stroke-linejoin: miter">
<path d="M-101.88879,1239.3368L-101.8888,1239.3368L-32.01909,1272.7878Q-67.63962,1350.9418,-103.26015,1429.0957L-101.88879,1239.3368"/>
</g>
<g style="fill:rgb(1,28,48); fill-opacity:1.0; stroke-linejoin: miter">
<path d="M-67.26734,1427.0027L-67.267365,1427.003Q9.94751,1263.899,87.16244,1100.7944L405.98782,1251.9744Q363.53018,1340.5133,321.07254,1429.0522L-67.26734,1427.0027"/>
</g>
<g style="fill:rgb(1,28,48); fill-opacity:1.0; stroke-linejoin: miter">
<path d="M257.3402,755.4551L257.3402,755.45514L106.17258,1072.457Q263.48068,1149.1729,420.7888,1225.8888Q496.21576,1065.9379,571.6427,905.9868L257.3402,755.4551"/>
</g>
<g style="fill:rgb(1,28,48); fill-opacity:1.0; stroke-linejoin: miter">
<path d="M306.75183,568.8228L306.752,568.8231L306.7522,568.8234L306.75183,568.8228"/>
</g>
<g style="fill:rgb(1,28,48); fill-opacity:1.0; stroke-linejoin: miter">
<path d="M515.3432,1109.0977L364.17557,1426.0996L678.79175,1579.5316L829.6457,1259.6295L515.3432,1109.0977"/>
</g>
<g style="fill:rgb(1,28,48); fill-opacity:1.0; stroke-linejoin: miter">
<path d="M679.9708,758.9724L604.38696,917.4734L528.8031,1075.9744Q686.1112,1152.6903,843.4193,1229.4064Q918.8463,1069.4553,994.2732,909.5043Q837.122,834.23834,679.9708,758.9724"/>
</g>
<g style="fill:rgb(1,28,48); fill-opacity:1.0; stroke-linejoin: miter">
<path d="M847.4563,413.07834L696.2886,730.0803L1010.9047,883.5123L1161.7585,563.6102L847.4563,413.07834"/>
</g>
<g style="fill:rgb(1,28,48); fill-opacity:1.0; stroke-linejoin: miter">
<path d="M1108.4866,752.6206L1032.9027,911.1215L957.3189,1069.6224Q1114.627,1146.3385,1271.935,1223.0546Q1347.3619,1063.1035,1422.7888,903.1524Q1265.6377,827.88654,1108.4866,752.6206"/>
</g>
<g style="fill:rgb(1,28,48); fill-opacity:1.0; stroke-linejoin: miter">
<path d="M944.44055,1098.1946L944.44055,1098.1951L781.65247,1450.8854Q966.7612,1520.6289,1151.87,1590.3724Q1205.3065,1419.5493,1258.743,1248.7263L944.44055,1098.1946"/>
</g>
<g style="fill:rgb(1,28,48); fill-opacity:1.0; stroke-linejoin: miter">
<path d="M1272.5323,407.04672L1196.9485,565.5477L1121.3646,724.0487Q1278.6727,800.7648,1435.9808,877.48083Q1511.4077,717.52966,1586.8346,557.5785Q1429.6835,482.3126,1272.5323,407.04672"/>
</g>
<g style="fill:rgb(1,28,48); fill-opacity:1.0; stroke-linejoin: miter">
<path d="M422.61194,404.3781L271.4443,721.38007L586.0605,874.81177L736.9144,554.90985L422.61194,404.3781"/>
</g>
<g style="fill:rgb(245,142,110); fill-opacity:1.0; stroke-linejoin: miter">
<path d="M933.88153,1737.9645L933.88153,1737.9645L923.9611,1737.5997C922.3475,1737.5404,921.08734,1736.1842,921.14667,1734.5707C921.206,1732.9569,922.5622,1731.6971,924.1757,1731.7565L924.1757,1731.7565L934.09625,1732.1207C935.7099,1732.18,936.9699,1733.5367,936.9107,1735.1503C936.85126,1736.7635,935.4952,1738.0238,933.88153,1737.9645 Z"/>
</g>
</g>
<g id="layer2" opacity="0.0">
<g style="fill:rgb(0,0,0); fill-opacity:1.0; stroke-linejoin: miter">
<path d="M-100.30053,705.15027L539.9999,705.1506L1180.3003,705.1509L1180.3003,1426.0349Q539.9999,1426.0352,-100.30053,1426.0354Q-100.30053,1065.5928,-100.30053,705.15027"/>
</g>
</g>
<g id="layer3">
<g style="fill:rgb(1,51,86); fill-opacity:1.0; stroke-linejoin: miter">
<path d="M667.80615,1047.6587L669.0254,1065.3698Q667.88116,1119.5544,631.4774,1156.9275Q594.7882,1194.3134,538.358,1195.9153Q484.1384,1194.7814,446.74805,1158.4077Q434.75195,1146.6377,426.02805,1132.0164L418.29742,1116.8151Q411.47244,1100.9673,408.97128,1083.0662Q402.8411,1027.9187,434.36667,986.4298Q465.8922,944.94104,520.6968,936.0311Q575.8807,929.8951,617.3905,961.393Q658.9004,992.89087,667.80615,1047.6587"/>
</g>
<g style="fill:rgb(44,1,86); fill-opacity:1.0; stroke-linejoin: miter">
<path d="M253.08731,599.4208L253.08731,599.4208L253.08731,599.4208L253.08731,599.4208L253.08731,599.4208L253.08731,599.4208L253.08731,599.4208L253.08731,599.4208L253.08731,599.4208L253.08731,599.4208 M254.2337,607.801L254.2337,607.801L254.2337,607.801L254.2337,607.801L254.2337,607.801L254.2337,607.801L254.2337,607.801L254.2337,607.801L254.2337,607.801 Z"/>
</g>
</g>
<g id="layer4">
<g style="fill:url(#grad0); fill-opacity:1.0; stroke-linejoin: miter">
<path d="M684.2732,1045.5155L684.2732,1045.5155C695.0509,1125.7222,638.7585,1199.4805,558.54144,1210.2595L558.5415,1210.2595C478.3245,1221.0387,404.55804,1164.7573,393.78033,1084.5504L393.78033,1084.5504C383.0025,1004.3436,439.2949,930.58545,519.51184,919.80634L519.51184,919.80634C599.72894,909.0271,673.49536,965.3088,684.2732,1045.5155L684.2732,1045.5155 M678.4778,1046.2943L678.4778,1046.2943C668.1301,969.28894,597.30786,915.2525,520.29065,925.60175L520.29065,925.60175C443.27356,935.9509,389.22803,1006.7663,399.57568,1083.7716L399.57568,1083.7716C409.92325,1160.7773,480.7457,1214.8134,557.7627,1204.4641L557.76276,1204.4641C634.7798,1194.115,688.82526,1123.2994,678.4778,1046.2943 Z"/>
</g>
<g style="fill:rgb(44,1,86); fill-opacity:1.0; stroke-linejoin: miter">
<path d="M290.20883,661.20935L290.20883,661.20935L290.20883,661.20935L290.20883,661.20935L290.20883,661.20935L290.20883,661.20935L290.20883,661.20935L290.20883,661.20935L290.20883,661.20935L290.20883,661.20935 M290.98758,667.00476L290.98758,667.00476L290.98758,667.00476L290.98758,667.00476L290.98758,667.00476L290.98758,667.00476L290.98758,667.00476L290.98758,667.00476L290.98758,667.00476 Z"/>
</g>
</g>
<g id="layer5">
<g style="fill:rgb(201,233,255); fill-opacity:1.0; stroke-linejoin: miter">
<path d="M327.30728,762.86774L327.30728,762.86774L327.30728,762.86816L321.4598,762.86816L321.4598,762.86774L327.30728,762.86774L327.30728,762.86816L321.4598,762.86816L321.4598,762.86774L327.30728,762.86774 M321.4598,762.86774C321.4598,761.253,322.76883,759.94403,324.38354,759.94403C325.99826,759.94403,327.30728,761.253,327.30728,762.86774L327.30728,762.86774L327.30728,762.86816C327.30728,764.48285,325.99826,765.7919,324.38354,765.7919C322.76883,765.7919,321.4598,764.48285,321.4598,762.86816L321.4598,762.86816L321.4598,762.86774C321.4598,761.253,322.76883,759.94403,324.38354,759.94403C325.99826,759.94403,327.30728,761.253,327.30728,762.86774L327.30728,762.86774L327.30728,762.86816C327.30728,764.48285,325.99826,765.7919,324.38354,765.7919C322.76883,765.7919,321.4598,764.48285,321.4598,762.86816L321.4598,762.86816L321.4598,762.86774 Z"/>
</g>
<g style="fill:rgb(0,149,248); fill-opacity:1.0; stroke-linejoin: miter">
<path d="M479.5997,1331.1124L599.04346,1331.1134L599.04346,1294.8606L479.5997,1294.8616L479.5997,1331.1124"/>
</g>
<g>
<g style="fill:rgb(255,255,255); fill-opacity:1.0; stroke-linejoin: miter">
<path d="M570.9642,1247.5822Q571.61,1247.5822,572.21173,1247.7876Q572.7988,1247.9785,573.2685,1248.4188Q573.72345,1248.8591,574.0023,1249.5636Q574.2812,1250.2681,574.2812,1251.2808L567.0307,1251.2808Q567.1775,1250.2241,567.5151,1249.5049Q567.85266,1248.8004,568.36633,1248.3601Q568.86536,1247.9344,569.5258,1247.7583Q570.17163,1247.5822,570.9642,1247.5822 Z M506.3118,1243.5314L509.6875,1253.1888L502.93607,1253.1888L506.3118,1243.5314 Z M542.59344,1247.5822Q543.5475,1247.5822,544.34,1247.8757Q545.13257,1248.1693,545.793,1248.6389L545.793,1257.5039Q545.13257,1257.9735,544.34,1258.2671Q543.5475,1258.5607,542.59344,1258.5607Q541.47797,1258.5607,540.6854,1258.1937Q539.90753,1257.8414,539.4085,1257.137Q538.9242,1256.4325,538.68933,1255.405Q538.4692,1254.3777,538.4692,1253.042Q538.4692,1251.7064,538.70404,1250.6791Q538.9242,1249.6664,539.4232,1248.9766Q539.90753,1248.2866,540.7001,1247.9344Q541.47797,1247.5822,542.59344,1247.5822 Z M504.8294,1240.4491L497.5496,1260.4099L500.4263,1260.4099L502.18753,1255.3317L510.43604,1255.3317L512.212,1260.4099L515.0887,1260.4099L507.7648,1240.4491 Z M526.40466,1245.4393Q524.95166,1245.4393,523.71875,1245.8943Q522.50055,1246.3347,521.42914,1247.1272L521.19434,1245.7329L518.6552,1245.7329L518.6552,1260.4099L521.53186,1260.4099L521.53186,1249.2261Q522.4272,1248.5215,523.46924,1248.0519Q524.49664,1247.5822,525.7442,1247.5822Q526.434,1247.5822,526.93304,1247.7437Q527.43207,1247.905,527.75494,1248.272Q528.0632,1248.6389,528.2246,1249.2407Q528.3714,1249.8278,528.3714,1250.6937L528.3714,1260.4099L531.2481,1260.4099L531.2481,1250.6937Q531.2481,1249.138,530.8959,1248.1252Q530.5583,1247.1125,529.9271,1246.5107Q529.296,1245.9237,528.40076,1245.6742Q527.50543,1245.4393,526.40466,1245.4393 Z M560.55817,1245.4393Q559.4133,1245.4393,558.4153,1245.9678Q557.41724,1246.4961,556.5366,1247.7876L556.3018,1245.7329L553.7627,1245.7329L553.7627,1260.4099L556.6394,1260.4099L556.6394,1249.9746Q557.3292,1249.0499,558.1365,1248.4628Q558.94366,1247.8757,559.92706,1247.8757Q560.3967,1247.8757,560.7783,1247.905Q561.1599,1247.9198,561.5415,1247.9932L561.8057,1245.498Q561.51215,1245.4688,561.17456,1245.454Q560.8517,1245.4393,560.55817,1245.4393 Z M545.793,1239.862L545.793,1246.9218Q545.3968,1246.5695,544.9711,1246.2906Q544.5602,1246.0117,544.06116,1245.8209Q543.56213,1245.6448,542.97504,1245.5421Q542.38794,1245.4393,541.6541,1245.4393Q540.25977,1245.4393,539.12964,1245.9824Q538.0142,1246.5254,537.2217,1247.5234Q536.4438,1248.5068,536.0181,1249.9159Q535.5925,1251.3102,535.5925,1253.042Q535.5925,1254.7739,536.0181,1256.183Q536.4438,1257.5919,537.2363,1258.6046Q538.0142,1259.6027,539.14435,1260.1604Q540.25977,1260.7035,541.6541,1260.7035Q542.44666,1260.7035,543.0631,1260.6007Q543.67957,1260.498,544.1786,1260.2925Q544.6776,1260.087,545.1032,1259.7935Q545.51416,1259.5146,545.91046,1259.133L546.1306,1260.4099L548.66974,1260.4099L548.66974,1239.862 Z M570.9642,1245.4393Q569.379,1245.4393,568.1022,1245.9678Q566.82526,1246.4814,565.9153,1247.4795Q565.01996,1248.4628,564.52094,1249.9159Q564.0366,1251.3542,564.0366,1253.1888Q564.0366,1254.9795,564.5503,1256.3738Q565.0493,1257.7681,566.018,1258.7367Q566.97205,1259.6908,568.38104,1260.2045Q569.7753,1260.7035,571.5659,1260.7035Q573.0043,1260.7035,574.26654,1260.4099Q575.52875,1260.1311,576.4387,1259.6174L575.7489,1257.7388Q575.4113,1257.8708,575.00037,1258.0176Q574.5894,1258.1643,574.0757,1258.2817Q573.562,1258.3992,572.9309,1258.4872Q572.31445,1258.5607,571.5659,1258.5607Q569.335,1258.5607,568.1462,1257.2103Q566.97205,1255.8748,566.9133,1253.4236L577.1579,1253.4236L577.1579,1251.2808Q577.1579,1249.9011,576.6735,1248.8151Q576.1892,1247.729,575.3526,1246.9805Q574.51605,1246.2319,573.38586,1245.8357Q572.25574,1245.4393,570.9642,1245.4393 Z"/>
</g>
</g>
<g>
<g style="fill:rgb(255,255,255); fill-opacity:1.0; stroke-linejoin: miter">
<path d="M524.60016,1311.2076Q525.1839,1311.2076,525.6764,1311.4083Q526.1598,1311.5999,526.5155,1312.0194Q526.86206,1312.4298,527.0627,1313.0773Q527.2542,1313.7249,527.2542,1314.6187Q527.2542,1315.5125,527.0536,1316.16Q526.86206,1316.8076,526.50635,1317.2272Q526.1598,1317.6376,525.6673,1317.8383Q525.1839,1318.0297,524.60016,1318.0297Q524.0165,1318.0297,523.5331,1317.8291Q523.04974,1317.6376,522.7031,1317.218Q522.35657,1316.8076,522.16504,1316.16Q521.9735,1315.5125,521.9735,1314.6187Q521.9735,1313.7249,522.16504,1313.0773Q522.35657,1312.4298,522.7031,1312.0103Q523.04974,1311.5999,523.5331,1311.3992Q524.0165,1311.2076,524.60016,1311.2076 Z M546.1427,1311.2076Q546.7264,1311.2076,547.21893,1311.4083Q547.7023,1311.5999,548.058,1312.0194Q548.40454,1312.4298,548.6052,1313.0773Q548.79675,1313.7249,548.79675,1314.6187Q548.79675,1315.5125,548.59607,1316.16Q548.40454,1316.8076,548.0489,1317.2272Q547.7023,1317.6376,547.2098,1317.8383Q546.7264,1318.0297,546.1427,1318.0297Q545.55896,1318.0297,545.0756,1317.8291Q544.5922,1317.6376,544.24567,1317.218Q543.89905,1316.8076,543.7075,1316.16Q543.516,1315.5125,543.516,1314.6187Q543.516,1313.7249,543.7075,1313.0773Q543.89905,1312.4298,544.24567,1312.0103Q544.5922,1311.5999,545.0756,1311.3992Q545.55896,1311.2076,546.1427,1311.2076 Z M517.3859,1306.2279Q516.64716,1306.2279,516.0452,1306.3829Q515.4524,1306.5288,515.03284,1306.9028Q514.6133,1307.2676,514.38525,1307.8969Q514.1664,1308.5262,514.1664,1309.493L514.1664,1310.0585L513.03546,1310.0585L512.8622,1311.39L514.1664,1311.39L514.1664,1319.179L515.95404,1319.179L515.95404,1311.39L518.64453,1311.39L518.64453,1310.0585L515.95404,1310.0585L515.95404,1309.493Q515.95404,1308.964,516.0452,1308.5901Q516.1364,1308.2252,516.3371,1307.9882Q516.5286,1307.7601,516.8387,1307.6598Q517.13965,1307.5594,517.5683,1307.5594Q517.769,1307.5594,517.98785,1307.5776Q518.2067,1307.596,518.41656,1307.6233Q518.6172,1307.6506,518.8087,1307.6871Q518.99115,1307.7145,519.1279,1307.7418L519.1827,1306.5015Q519.0185,1306.4468,518.7996,1306.392Q518.5898,1306.3464,518.3527,1306.3099Q518.11554,1306.2734,517.8693,1306.2461Q517.62305,1306.2279,517.3859,1306.2279 Z M531.7962,1306.4103L531.7962,1319.179L533.5838,1319.179L533.5838,1306.4103 Z M537.1408,1306.4103L537.1408,1319.179L538.9284,1319.179L538.9284,1306.4103 Z M552.1713,1310.0585L554.67944,1319.179L556.1204,1319.179L558.5191,1312.603L560.8996,1319.179L562.368,1319.179L564.85785,1310.0585L563.12494,1310.0585L561.60187,1317.0903L559.1302,1310.0585L557.92633,1310.0585L555.41815,1317.136L553.9042,1310.0585 Z M524.60016,1309.8761Q523.606,1309.8761,522.7944,1310.2043Q521.9826,1310.5327,521.3989,1311.153Q520.8243,1311.764,520.50507,1312.6395Q520.18585,1313.5151,520.18585,1314.6187Q520.18585,1315.7313,520.50507,1316.6069Q520.8243,1317.4825,521.408,1318.1027Q521.9826,1318.7137,522.7944,1319.0421Q523.606,1319.3613,524.60016,1319.3613Q525.5852,1319.3613,526.40607,1319.033Q527.22687,1318.7137,527.8106,1318.0936Q528.3943,1317.4825,528.72266,1316.6069Q529.0419,1315.7313,529.0419,1314.6187Q529.0419,1313.5151,528.7135,1312.6395Q528.3943,1311.764,527.8106,1311.1438Q527.22687,1310.5327,526.40607,1310.2043Q525.5852,1309.8761,524.60016,1309.8761 Z M546.1427,1309.8761Q545.14856,1309.8761,544.33685,1310.2043Q543.52515,1310.5327,542.9414,1311.153Q542.3668,1311.764,542.0476,1312.6395Q541.7284,1313.5151,541.7284,1314.6187Q541.7284,1315.7313,542.0476,1316.6069Q542.3668,1317.4825,542.9505,1318.1027Q543.52515,1318.7137,544.33685,1319.0421Q545.14856,1319.3613,546.1427,1319.3613Q547.1277,1319.3613,547.94855,1319.033Q548.76935,1318.7137,549.3531,1318.0936Q549.93677,1317.4825,550.26514,1316.6069Q550.58435,1315.7313,550.58435,1314.6187Q550.58435,1313.5151,550.25604,1312.6395Q549.93677,1311.764,549.3531,1311.1438Q548.76935,1310.5327,547.94855,1310.2043Q547.1277,1309.8761,546.1427,1309.8761 Z"/>
</g>
</g>
<g>
<g style="fill:rgb(255,255,255); fill-opacity:1.0; stroke-linejoin: miter">
<path d="M574.35645,1272.3342L574.35645,1273.4326L575.6984,1273.4326L575.6984,1272.3342 Z M527.45074,1275.6298Q527.7254,1275.6298,527.98126,1275.7172Q528.23096,1275.7982,528.43066,1275.9855Q528.62415,1276.1727,528.74274,1276.4724Q528.8613,1276.772,528.8613,1277.2026L525.778,1277.2026Q525.8404,1276.7532,525.98395,1276.4474Q526.1275,1276.1478,526.346,1275.9606Q526.55817,1275.7795,526.83905,1275.7046Q527.1137,1275.6298,527.45074,1275.6298 Z M499.95642,1273.907L501.392,1278.014L498.52087,1278.014L499.95642,1273.907 Z M563.546,1278.1263L563.546,1279.6619Q563.4711,1279.718,563.31506,1279.8241Q563.1653,1279.9302,562.94684,1280.0364Q562.72833,1280.1362,562.44745,1280.211Q562.1666,1280.286,561.8358,1280.286Q561.60486,1280.286,561.40515,1280.2236Q561.2117,1280.1674,561.06805,1280.0488Q560.9245,1279.9364,560.8434,1279.7617Q560.76227,1279.5931,560.76227,1279.3748Q560.76227,1279.2374,560.8309,1279.0251Q560.8933,1278.8192,561.06805,1278.6195Q561.24286,1278.4197,561.5487,1278.2761Q561.8545,1278.1326,562.33514,1278.1263 Z M515.3857,1275.6298Q515.7914,1275.6298,516.1285,1275.7545Q516.4655,1275.8794,516.7464,1276.0791L516.7464,1279.8491Q516.4655,1280.0488,516.1285,1280.1736Q515.7914,1280.2985,515.3857,1280.2985Q514.9113,1280.2985,514.5743,1280.1425Q514.24347,1279.9927,514.03125,1279.693Q513.8253,1279.3934,513.7254,1278.9565Q513.6318,1278.5195,513.6318,1277.9517Q513.6318,1277.3837,513.7317,1276.9467Q513.8253,1276.516,514.03754,1276.2227Q514.24347,1275.9293,514.5805,1275.7795Q514.9113,1275.6298,515.3857,1275.6298 Z M569.53796,1275.6298Q569.94366,1275.6298,570.2807,1275.7545Q570.61774,1275.8794,570.8986,1276.0791L570.8986,1279.8491Q570.61774,1280.0488,570.2807,1280.1736Q569.94366,1280.2985,569.53796,1280.2985Q569.0636,1280.2985,568.72656,1280.1425Q568.39575,1279.9927,568.18353,1279.693Q567.97754,1279.3934,567.8777,1278.9565Q567.78406,1278.5195,567.78406,1277.9517Q567.78406,1277.3837,567.8839,1276.9467Q567.97754,1276.516,568.18976,1276.2227Q568.39575,1275.9293,568.7328,1275.7795Q569.0636,1275.6298,569.53796,1275.6298 Z M499.32602,1272.5963L496.2302,1281.085L497.45355,1281.085L498.20255,1278.9253L501.71033,1278.9253L502.46558,1281.085L503.6889,1281.085L500.57434,1272.5963 Z M508.50122,1274.7185Q507.8833,1274.7185,507.359,1274.912Q506.84094,1275.0992,506.3853,1275.4363L506.2854,1274.8433L505.20563,1274.8433L505.20563,1281.085L506.42896,1281.085L506.42896,1276.3287Q506.80975,1276.0292,507.25287,1275.8295Q507.68976,1275.6298,508.22034,1275.6298Q508.51367,1275.6298,508.7259,1275.6984Q508.9381,1275.7671,509.07544,1275.9231Q509.20648,1276.0791,509.27515,1276.3351Q509.3376,1276.5847,509.3376,1276.953L509.3376,1281.085L510.5609,1281.085L510.5609,1276.953Q510.5609,1276.2914,510.41113,1275.8606Q510.26758,1275.4299,509.9992,1275.1741Q509.73077,1274.9244,509.35004,1274.8184Q508.9693,1274.7185,508.50122,1274.7185 Z M523.02545,1274.7185Q522.5386,1274.7185,522.11414,1274.9431Q521.68976,1275.1678,521.31525,1275.7172L521.2154,1274.8433L520.13556,1274.8433L520.13556,1281.085L521.35895,1281.085L521.35895,1276.6471Q521.6523,1276.2539,521.99554,1276.0043Q522.33887,1275.7545,522.757,1275.7545Q522.9568,1275.7545,523.1191,1275.7671Q523.2813,1275.7733,523.4436,1275.8044L523.55597,1274.7434Q523.43115,1274.731,523.2876,1274.7247Q523.15027,1274.7185,523.02545,1274.7185 Z M534.9844,1272.5963L534.9844,1281.085L539.9839,1281.085L539.9839,1280.1736L536.2077,1280.1736L536.2077,1277.1902L539.5782,1277.1902L539.5782,1276.2788L536.2077,1276.2788L536.2077,1273.5076L539.9839,1273.5076L539.9839,1272.5963 Z M544.5278,1274.7185Q544.04095,1274.7185,543.6165,1274.9431Q543.1921,1275.1678,542.81757,1275.7172L542.7177,1274.8433L541.63794,1274.8433L541.63794,1281.085L542.86127,1281.085L542.86127,1276.6471Q543.15466,1276.2539,543.4979,1276.0043Q543.84125,1275.7545,544.2594,1275.7545Q544.45917,1275.7545,544.6214,1275.7671Q544.7837,1275.7733,544.946,1275.8044L545.05835,1274.7434Q544.93353,1274.731,544.79,1274.7247Q544.65265,1274.7185,544.5278,1274.7185 Z M552.4609,1272.3467L552.4609,1281.085L553.68427,1281.085L553.68427,1276.3287Q554.065,1276.0167,554.5081,1275.8232Q554.94507,1275.6298,555.4756,1275.6298Q556.06854,1275.6298,556.3307,1275.9543Q556.59283,1276.2726,556.59283,1277.0154L556.59283,1281.085L557.8162,1281.085L557.8162,1277.0154Q557.8162,1276.3538,557.6664,1275.9106Q557.5228,1275.4736,557.25446,1275.2053Q556.9861,1274.9431,556.60535,1274.8308Q556.2246,1274.7185,555.7565,1274.7185Q555.15106,1274.7185,554.6392,1274.8994Q554.13367,1275.0804,553.68427,1275.4113L553.68427,1272.3467 Z M574.4189,1274.8433L574.4189,1281.085L575.6423,1281.085L575.6423,1274.8433 Z M562.2852,1274.7185Q561.9981,1274.7185,561.69226,1274.7559Q561.39264,1274.7933,561.0993,1274.862Q560.8122,1274.9307,560.54376,1275.0305Q560.2816,1275.1241,560.0757,1275.2427L560.34406,1276.0916Q560.50006,1276.0167,560.71857,1275.948Q560.9308,1275.8794,561.1742,1275.8232Q561.4114,1275.7671,561.6735,1275.7358Q561.92944,1275.7046,562.17285,1275.7046Q562.5411,1275.7046,562.8033,1275.7733Q563.05914,1275.8419,563.22766,1276.0167Q563.38995,1276.1852,563.4711,1276.4785Q563.546,1276.7657,563.546,1277.2026L563.546,1277.3524L562.18536,1277.3524Q561.6111,1277.3524,561.12427,1277.5146Q560.6436,1277.677,560.2879,1277.9517Q559.93835,1278.22,559.7386,1278.582Q559.5389,1278.9377,559.5389,1279.3373Q559.5389,1279.7118,559.6637,1280.0488Q559.7886,1280.3859,560.0382,1280.6417Q560.2816,1280.8977,560.6561,1281.0475Q561.0244,1281.1973,561.5112,1281.1973Q561.9045,1281.1973,562.2415,1281.1099Q562.57855,1281.0287,562.8532,1280.9039Q563.1216,1280.7853,563.3275,1280.648Q563.5335,1280.517,563.6584,1280.4108L563.82684,1281.085L564.76935,1281.085L564.76935,1277.2026Q564.76935,1276.4661,564.5946,1275.9855Q564.41986,1275.5049,564.0953,1275.224Q563.7707,1274.9431,563.30884,1274.8308Q562.8532,1274.7185,562.2852,1274.7185 Z M516.7464,1272.3467L516.7464,1275.3489Q516.5778,1275.1991,516.39685,1275.0804Q516.2221,1274.9619,516.0099,1274.8807Q515.79767,1274.8059,515.548,1274.7622Q515.29834,1274.7185,514.98627,1274.7185Q514.3933,1274.7185,513.91266,1274.9493Q513.4383,1275.1803,513.10126,1275.6047Q512.77045,1276.023,512.5895,1276.6222Q512.40845,1277.2151,512.40845,1277.9517Q512.40845,1278.6881,512.5895,1279.2874Q512.77045,1279.8865,513.1075,1280.3171Q513.4383,1280.7416,513.91895,1280.9788Q514.3933,1281.2097,514.98627,1281.2097Q515.3233,1281.2097,515.58545,1281.166Q515.8476,1281.1223,516.0598,1281.0349Q516.27203,1280.9476,516.453,1280.8228Q516.6278,1280.7041,516.7963,1280.5419L516.88995,1281.085L517.9697,1281.085L517.9697,1272.3467 Z M527.45074,1274.7185Q526.7767,1274.7185,526.23364,1274.9431Q525.6906,1275.1616,525.30365,1275.586Q524.9229,1276.0043,524.7107,1276.6222Q524.5047,1277.2339,524.5047,1278.014Q524.5047,1278.7755,524.72314,1279.3684Q524.93536,1279.9614,525.34735,1280.3734Q525.753,1280.779,526.35223,1280.9976Q526.9452,1281.2097,527.70667,1281.2097Q528.3183,1281.2097,528.8551,1281.085Q529.3919,1280.9663,529.7789,1280.7478L529.48553,1279.949Q529.342,1280.0051,529.1672,1280.0675Q528.99243,1280.1299,528.774,1280.1799Q528.5555,1280.2297,528.2871,1280.2672Q528.02496,1280.2985,527.70667,1280.2985Q526.75793,1280.2985,526.2524,1279.7242Q525.753,1279.1562,525.7281,1278.1139L530.0847,1278.1139L530.0847,1277.2026Q530.0847,1276.616,529.8787,1276.154Q529.6728,1275.6921,529.31696,1275.3738Q528.96124,1275.0555,528.4806,1274.887Q528.0,1274.7185,527.45074,1274.7185 Z M548.46625,1274.7185Q547.90454,1274.7185,547.45514,1274.8433Q547.00574,1274.9619,546.6874,1275.1991Q546.3753,1275.4299,546.2068,1275.7671Q546.0445,1276.1041,546.0445,1276.5286Q546.0445,1276.878,546.20056,1277.1652Q546.35034,1277.4523,546.6187,1277.677Q546.88715,1277.9016,547.2554,1278.0702Q547.62366,1278.2388,548.0543,1278.3511Q548.37885,1278.4385,548.64105,1278.5383Q548.9032,1278.6382,549.0904,1278.7631Q549.2714,1278.8878,549.3713,1279.044Q549.4711,1279.1937,549.4711,1279.3872Q549.4711,1279.8179,549.1903,1280.0613Q548.91565,1280.2985,548.2915,1280.2985Q547.9482,1280.2985,547.6736,1280.261Q547.3989,1280.2297,547.1555,1280.1674Q546.9121,1280.105,546.68115,1280.0238Q546.4565,1279.9426,546.2068,1279.8491L545.9759,1280.7229Q546.1756,1280.8352,546.444,1280.9288Q546.7061,1281.0162,547.01196,1281.0786Q547.3116,1281.1411,547.6424,1281.1786Q547.9732,1281.2097,548.30396,1281.2097Q548.8595,1281.2097,549.3026,1281.0786Q549.7458,1280.9476,550.05786,1280.7041Q550.3637,1280.4607,550.5322,1280.1174Q550.6945,1279.7742,550.6945,1279.3497Q550.6945,1279.0065,550.5634,1278.7318Q550.4324,1278.4572,550.164,1278.2324Q549.90186,1278.0078,549.48987,1277.8268Q549.08417,1277.6458,548.5287,1277.5022Q548.1729,1277.4086,547.9295,1277.3025Q547.6923,1277.2026,547.5425,1277.0778Q547.3989,1276.953,547.33026,1276.8031Q547.2679,1276.6533,547.2679,1276.4661Q547.2679,1276.0791,547.56744,1275.8545Q547.86707,1275.6298,548.4912,1275.6298Q548.79083,1275.6298,549.028,1275.6609Q549.259,1275.6859,549.4649,1275.7358Q549.6647,1275.7795,549.85815,1275.8419Q550.05164,1275.9043,550.2763,1275.973L550.50104,1275.1179Q550.1952,1274.9681,549.6709,1274.8433Q549.1466,1274.7185,548.46625,1274.7185 Z M570.8986,1272.3467L570.8986,1275.3489Q570.7301,1275.1991,570.5491,1275.0804Q570.3743,1274.9619,570.1621,1274.8807Q569.9499,1274.8059,569.70026,1274.7622Q569.45056,1274.7185,569.1385,1274.7185Q568.54553,1274.7185,568.06494,1274.9493Q567.5906,1275.1803,567.25354,1275.6047Q566.9227,1276.023,566.7417,1276.6222Q566.5607,1277.2151,566.5607,1277.9517Q566.5607,1278.6881,566.7417,1279.2874Q566.9227,1279.8865,567.25977,1280.3171Q567.5906,1280.7416,568.07117,1280.9788Q568.54553,1281.2097,569.1385,1281.2097Q569.4755,1281.2097,569.7377,1281.166Q569.9998,1281.1223,570.21204,1281.0349Q570.42426,1280.9476,570.6053,1280.8228Q570.78,1280.7041,570.94855,1280.5419L571.0422,1281.085L572.122,1281.085L572.122,1272.3467 Z"/>
</g>
</g>
</g>
<defs>
<linearGradient id="grad0" gradientUnits="userSpaceOnUse" x1="342.48663" y1="1264.549" x2="612.11926" y2="994.9164" >
<stop offset="0.0%" style="stop-color:rgb(245,142,110); stop-opacity:1.0" />
<stop offset="100.0%" style="stop-color:rgb(173,78,151); stop-opacity:1.0" />
</linearGradient>
</defs>
</svg>